%FSLAX25Y25*%
%MOIN*%
G04 EasyPC Gerber Version 18.0.8 Build 3632 *
%ADD142R,0.01726X0.02750*%
%ADD139R,0.02159X0.08065*%
%ADD137R,0.02553X0.05899*%
%ADD134R,0.02946X0.05899*%
%ADD140R,0.04324X0.04718*%
%ADD135R,0.06175X0.06687*%
%ADD10C,0.00500*%
%ADD92C,0.03537*%
%ADD133R,0.06293X0.03537*%
%ADD136R,0.07671X0.04915*%
%ADD141R,0.09049X0.06293*%
%ADD138R,0.07080X0.06883*%
X0Y0D02*
D02*
D10*
X167322Y14305D02*
X164173D01*
Y18259*
X159803*
Y14305*
X37126*
Y17866*
X27003*
Y79126*
X37047*
Y83399*
X159763*
Y79401*
X164094*
Y83399*
X167322*
Y79165*
X184423*
Y18417*
X167322*
Y14305*
D02*
D92*
X30683Y74874D03*
X165984Y26960D03*
D02*
D133*
X159140Y24996D03*
Y39540D03*
D02*
D134*
X121856Y64815D03*
X126187D03*
X130518D03*
X134848D03*
X139179D03*
X143510D03*
X147841D03*
D02*
D135*
X111935Y62404D03*
D02*
D136*
X158510Y63319D03*
D02*
D137*
X117722Y64815D03*
D02*
D138*
X120872Y20150D03*
X144376D03*
D02*
D139*
X61506Y22020D03*
X66506D03*
X71506D03*
X76506D03*
X81506D03*
X86506D03*
D02*
D140*
X44774Y32375D03*
Y40249D03*
X96978Y32375D03*
X97057Y40249D03*
D02*
D141*
X44970Y77926D03*
X97057Y77965D03*
D02*
D142*
X60939Y75603D03*
X80939D03*
X0Y0D02*
M02*
