%FSLAX25Y25*%
%MOIN*%
G04 EasyPC Gerber Version 18.0.8 Build 3632 *
%ADD10C,0.00500*%
%ADD150C,0.10000*%
X0Y0D02*
D02*
D10*
X44226Y31266D02*
Y35016D01*
X47351*
X46726Y33141D02*
X44226D01*
Y31266D02*
X47351D01*
X45407Y45439D02*
Y49189D01*
X48532*
X47907Y47314D02*
X45407D01*
Y45439D02*
X48532D01*
X46574Y79512D02*
Y83262D01*
X49700*
X49074Y81387D02*
X46574D01*
Y79512D02*
X49700D01*
X46588Y41108D02*
Y44858D01*
X49713*
X49088Y42983D02*
X46588D01*
Y41108D02*
X49713D01*
X46653Y82425D02*
Y86175D01*
X49778*
X49153Y84300D02*
X46653D01*
Y82425D02*
X49778D01*
X47992Y26008D02*
Y29758D01*
X51117*
X50492Y27883D02*
X47992D01*
Y26008D02*
X51117D01*
X59777Y41305D02*
Y45055D01*
X62902*
X62277Y43180D02*
X59777D01*
Y41305D02*
X62902D01*
X61574Y78961D02*
Y82711D01*
X64700*
X64074Y80836D02*
X61574D01*
Y78961D02*
X64700D01*
X61574Y81520D02*
Y85270D01*
X64700*
X64074Y83395D02*
X61574D01*
Y81520D02*
X64700D01*
X63124Y84022D02*
Y87772D01*
X66249*
X65624Y85897D02*
X63124D01*
Y84022D02*
X66249D01*
X64895Y26935D02*
Y30685D01*
X68020*
X67395Y28810D02*
X64895D01*
Y26935D02*
X68020D01*
X65486Y38549D02*
Y42299D01*
X67361*
X67986Y41987*
X68298Y41674*
X68611Y41049*
Y39799*
X68298Y39174*
X67986Y38862*
X67361Y38549*
X65486*
X66273Y73982D02*
Y77732D01*
X69398*
X68773Y75857D02*
X66273D01*
Y73982D02*
X69398D01*
X73313Y44848D02*
X74563D01*
X73938D02*
Y48598D01*
X73313D02*
X74563D01*
X73313Y47998D02*
X74563D01*
X73938D02*
Y51748D01*
X73313D02*
X74563D01*
X73313Y54297D02*
X74563D01*
X73938D02*
Y58047D01*
X73313D02*
X74563D01*
X73313Y63746D02*
X74563D01*
X73938D02*
Y67496D01*
X73313D02*
X74563D01*
X73510Y60793D02*
X74760D01*
X74135D02*
Y64543D01*
X73510D02*
X74760D01*
X72598Y75360D02*
Y79110D01*
X75723*
X75098Y77235D02*
X72598D01*
Y75360D02*
X75723D01*
X75748D02*
Y79110D01*
X78873*
X78248Y77235D02*
X75748D01*
Y75360D02*
X78873D01*
X79612Y41699D02*
X80862D01*
X80237D02*
Y45449D01*
X79612D02*
X80862D01*
X79612Y47998D02*
X80862D01*
X80237D02*
Y51748D01*
X79612D02*
X80862D01*
X79612Y54297D02*
X80862D01*
X80237D02*
Y58047D01*
X79612D02*
X80862D01*
X79612Y63746D02*
X80862D01*
X80237D02*
Y67496D01*
X79612D02*
X80862D01*
X80078Y75360D02*
Y79110D01*
X83204*
X82578Y77235D02*
X80078D01*
Y75360D02*
X83204D01*
X81824Y51148D02*
Y54898D01*
X83700*
X84324Y54585*
X84637Y54273*
X84950Y53648*
Y52398*
X84637Y51773*
X84324Y51460*
X83700Y51148*
X81824*
X82762Y54297D02*
X84012D01*
X83387D02*
Y58047D01*
X82762D02*
X84012D01*
X81824Y57447D02*
Y61197D01*
X83700*
X84324Y60885*
X84637Y60572*
X84950Y59947*
Y58697*
X84637Y58072*
X84324Y57759*
X83700Y57447*
X81824*
X82834Y75360D02*
Y79110D01*
X85959*
X85334Y77235D02*
X82834D01*
Y75360D02*
X85959D01*
X85911Y47998D02*
X87161D01*
X86537D02*
Y51748D01*
X85911D02*
X87161D01*
X85911Y54297D02*
X87161D01*
X86537D02*
Y58047D01*
X85911D02*
X87161D01*
X89061Y47998D02*
X90311D01*
X89686D02*
Y51748D01*
X89061D02*
X90311D01*
X89061Y54297D02*
X90311D01*
X89686D02*
Y58047D01*
X89061D02*
X90311D01*
X89061Y63746D02*
X90311D01*
X89686D02*
Y67496D01*
X89061D02*
X90311D01*
X88517Y22407D02*
Y26157D01*
X90393*
X91017Y25845*
X91330Y25533*
X91643Y24907*
Y23657*
X91330Y23033*
X91017Y22720*
X90393Y22407*
X88517*
X92211Y47998D02*
X93461D01*
X92836D02*
Y51748D01*
X92211D02*
X93461D01*
X91273Y51148D02*
Y54898D01*
X93148*
X93773Y54585*
X94086Y54273*
X94398Y53648*
Y52398*
X94086Y51773*
X93773Y51460*
X93148Y51148*
X91273*
X93635Y77132D02*
Y80882D01*
X96761*
X96135Y79007D02*
X93635D01*
Y77132D02*
X96761D01*
X95360Y38549D02*
X96610D01*
X95985D02*
Y42299D01*
X95360D02*
X96610D01*
X95360Y60596D02*
X96610D01*
X95985D02*
Y64346D01*
X95360D02*
X96610D01*
X94620Y84219D02*
Y87969D01*
X97745*
X97120Y86094D02*
X94620D01*
Y84219D02*
X97745D01*
X95210Y22211D02*
Y25961D01*
X97085*
X97710Y25648*
X98023Y25336*
X98335Y24711*
Y23461*
X98023Y22836*
X97710Y22523*
X97085Y22211*
X95210*
X98510Y47998D02*
X99760D01*
X99135D02*
Y51748D01*
X98510D02*
X99760D01*
X99960Y82307D02*
Y86057D01*
X103085*
X102460Y84182D02*
X99960D01*
Y82307D02*
X103085D01*
X99960Y85063D02*
Y88813D01*
X103085*
X102460Y86938D02*
X99960D01*
Y85063D02*
X103085D01*
X100131Y26935D02*
Y30685D01*
X103257*
X102631Y28810D02*
X100131D01*
Y26935D02*
X103257D01*
X101659Y35400D02*
X102909D01*
X102285D02*
Y39150D01*
X101659D02*
X102909D01*
X101659Y44848D02*
X102909D01*
X102285D02*
Y48598D01*
X101659D02*
X102909D01*
X101659Y57447D02*
X102909D01*
X102285D02*
Y61197D01*
X101659D02*
X102909D01*
X104809Y32250D02*
X106059D01*
X105434D02*
Y36000D01*
X104809D02*
X106059D01*
X105446Y56069D02*
Y59819D01*
X107322*
X107946Y59507*
X108259Y59194*
X108572Y58569*
Y57319*
X108259Y56694*
X107946Y56381*
X107322Y56069*
X105446*
X107218Y61187D02*
Y64937D01*
X109093*
X109718Y64625*
X110031Y64312*
X110343Y63687*
Y62437*
X110031Y61812*
X109718Y61500*
X109093Y61187*
X107218*
Y78313D02*
Y82063D01*
X110343*
X109718Y80188D02*
X107218D01*
Y78313D02*
X110343D01*
X109140Y33825D02*
X110390D01*
X109765D02*
Y37575D01*
X109140D02*
X110390D01*
X111896Y43667D02*
X113146D01*
X112521D02*
Y47417D01*
X111896D02*
X113146D01*
X115708Y83825D02*
Y87575D01*
X118833*
X118208Y85700D02*
X115708D01*
Y83825D02*
X118833D01*
X115880Y66896D02*
Y70646D01*
X119005*
X118380Y68771D02*
X115880D01*
Y66896D02*
X119005D01*
X116470Y72998D02*
Y76748D01*
X119595*
X118970Y74873D02*
X116470D01*
Y72998D02*
X119595D01*
X117257Y61974D02*
Y65724D01*
X119133*
X119757Y65412*
X120070Y65100*
X120383Y64474*
Y63224*
X120070Y62600*
X119757Y62287*
X119133Y61974*
X117257*
X118982Y58431D02*
X120232D01*
X119607D02*
Y62181D01*
X118982D02*
X120232D01*
X118267Y83825D02*
Y87575D01*
X121393*
X120767Y85700D02*
X118267D01*
Y83825D02*
X121393D01*
X119448Y23646D02*
Y27396D01*
X122574*
X121948Y25521D02*
X119448D01*
Y23646D02*
X122574D01*
X119448Y26598D02*
Y30348D01*
X122574*
X121948Y28474D02*
X119448D01*
Y26598D02*
X122574D01*
X121194Y50360D02*
Y54110D01*
X124320*
X123694Y52235D02*
X121194D01*
Y50360D02*
X124320D01*
X125281Y33431D02*
X126531D01*
X125907D02*
Y37181D01*
X125281D02*
X126531D01*
X124541Y22998D02*
Y26748D01*
X127666*
X127041Y24873D02*
X124541D01*
Y22998D02*
X127666D01*
X125328Y29494D02*
Y33244D01*
X127204*
X127828Y32932*
X128141Y32619*
X128454Y31994*
Y30744*
X128141Y30119*
X127828Y29807*
X127204Y29494*
X125328*
X125722Y55872D02*
Y59622D01*
X128847*
X128222Y57747D02*
X125722D01*
Y55872D02*
X128847D01*
X126706Y58037D02*
Y61787D01*
X129831*
X129206Y59913D02*
X126706D01*
Y58037D02*
X129831D01*
X126903Y53510D02*
Y57260D01*
X130028*
X129403Y55385D02*
X126903D01*
Y53510D02*
X130028D01*
X133596Y58037D02*
Y61787D01*
X136721*
X136096Y59913D02*
X133596D01*
Y58037D02*
X136721D01*
X136155Y53510D02*
Y57260D01*
X139280*
X138655Y55385D02*
X136155D01*
Y53510D02*
X139280D01*
X136155Y55872D02*
Y59622D01*
X139280*
X138655Y57747D02*
X136155D01*
Y55872D02*
X139280D01*
X137362Y23843D02*
Y27593D01*
X140487*
X139862Y25718D02*
X137362D01*
Y23843D02*
X140487D01*
X137362Y26598D02*
Y30348D01*
X140487*
X139862Y28474D02*
X137362D01*
Y26598D02*
X140487D01*
X142848Y54494D02*
Y58244D01*
X145973*
X145348Y56369D02*
X142848D01*
Y54494D02*
X145973D01*
X143045Y57053D02*
Y60803D01*
X146170*
X145545Y58928D02*
X143045D01*
Y57053D02*
X146170D01*
X145433Y28961D02*
Y32711D01*
X148558*
X147933Y30836D02*
X145433D01*
Y28961D02*
X148558D01*
X148582D02*
Y32711D01*
X151707*
X151082Y30836D02*
X148582D01*
Y28961D02*
X151707D01*
X148950Y76541D02*
Y80291D01*
X152076*
X151450Y78417D02*
X148950D01*
Y76541D02*
X152076D01*
X149147Y63943D02*
Y67693D01*
X151022*
X151647Y67381*
X151960Y67068*
X152272Y66443*
Y65193*
X151960Y64568*
X151647Y64256*
X151022Y63943*
X149147*
X150328Y66108D02*
Y69858D01*
X152204*
X152828Y69546*
X153141Y69233*
X153454Y68608*
Y67358*
X153141Y66733*
X152828Y66421*
X152204Y66108*
X150328*
X159212Y78370D02*
Y82120D01*
X162337*
X161712Y80245D02*
X159212D01*
Y78370D02*
X162337D01*
X159212Y81126D02*
Y84876D01*
X162337*
X161712Y83001D02*
X159212D01*
Y81126D02*
X162337D01*
X160787Y33882D02*
Y37632D01*
X163912*
X163287Y35757D02*
X160787D01*
Y33882D02*
X163912D01*
X172795Y26992D02*
Y30742D01*
X175920*
X175295Y28867D02*
X172795D01*
Y26992D02*
X175920D01*
X174935Y45439D02*
Y49189D01*
X178060*
X177435Y47314D02*
X174935D01*
Y45439D02*
X178060D01*
X175131Y38254D02*
Y42004D01*
X178257*
X177631Y40129D02*
X175131D01*
Y38254D02*
X178257D01*
X179069Y80970D02*
Y84720D01*
X182194*
X181569Y82846D02*
X179069D01*
Y80970D02*
X182194D01*
X180446Y42093D02*
Y45843D01*
X183572*
X182946Y43968D02*
X180446D01*
Y42093D02*
X183572D01*
X185761Y33367D02*
X186074Y33055D01*
X186699Y32742*
X187324Y33055*
X187637Y33367*
Y36492*
X188261*
X187637D02*
X186387D01*
X185761Y45884D02*
Y49634D01*
Y47759D02*
X186699D01*
X188887Y49634*
X186699Y47759D02*
X188887Y45884D01*
X185761Y63695D02*
Y67445D01*
Y65570D02*
X186699D01*
X188887Y67445*
X186699Y65570D02*
X188887Y63695D01*
X185761Y77462D02*
X186074Y77149D01*
X186699Y76837*
X187324Y77149*
X187637Y77462*
Y80587*
X188261*
X187637D02*
X186387D01*
D02*
D150*
X34226Y25328D03*
X35407Y39502D03*
X36574Y73574D03*
X36588Y35171D03*
X36653Y76488D03*
X37992Y20070D03*
X49777Y35368D03*
X51574Y73023D03*
Y75582D03*
X53124Y78084D03*
X54895Y20998D03*
X55486Y32612D03*
X56273Y68045D03*
X62376Y38911D03*
Y42061D03*
Y48360D03*
Y57809D03*
X62572Y54856D03*
X62598Y69423D03*
X65748D03*
X68675Y35761D03*
Y42061D03*
Y48360D03*
Y57809D03*
X70078Y69423D03*
X71824Y45210D03*
Y48360D03*
Y51509D03*
X72834Y69423D03*
X74974Y42061D03*
Y48360D03*
X78124Y42061D03*
Y48360D03*
Y57809D03*
X78517Y16470D03*
X81273Y42061D03*
Y45210D03*
X83635Y71194D03*
X84423Y32612D03*
Y54659D03*
X84620Y78281D03*
X85210Y16273D03*
X87572Y42061D03*
X89960Y76370D03*
Y79126D03*
X90131Y20998D03*
X90722Y29462D03*
Y38911D03*
Y51509D03*
X93872Y26313D03*
X95446Y50131D03*
X97218Y55250D03*
Y72376D03*
X98202Y27887D03*
X100958Y37730D03*
X105708Y77887D03*
X105880Y60958D03*
X106470Y67061D03*
X107257Y56037D03*
X108045Y52494D03*
X108267Y77887D03*
X109448Y17708D03*
Y20661D03*
X111194Y44423D03*
X114344Y27494D03*
X114541Y17061D03*
X115328Y23557D03*
X115722Y49935D03*
X116706Y52100D03*
X116903Y47572D03*
X123596Y52100D03*
X126155Y47572D03*
Y49935D03*
X127362Y17905D03*
Y20661D03*
X132848Y48557D03*
X133045Y51116D03*
X135433Y23023D03*
X138582D03*
X138950Y70604D03*
X139147Y58006D03*
X140328Y60171D03*
X149212Y72433D03*
Y75189D03*
X150787Y27944D03*
X162795Y21055D03*
X164935Y39502D03*
X165131Y32317D03*
X169069Y75033D03*
X170446Y36155D03*
X175761Y26805D03*
Y39946D03*
Y57757D03*
Y70899D03*
X0Y0D02*
M02*
