%FSLAX25Y25*%
%MOIN*%
G04 EasyPC Gerber Version 18.0.8 Build 3632 *
%ADD72R,0.02362X0.04724*%
%ADD22R,0.03937X0.04331*%
%ADD19R,0.04134X0.04252*%
%ADD16R,0.04331X0.03937*%
%ADD20R,0.04800X0.08800*%
%ADD17R,0.05118X0.05906*%
%ADD27R,0.05906X0.07480*%
%ADD24R,0.08661X0.04724*%
%ADD21R,0.14173X0.08661*%
%ADD10C,0.00500*%
%ADD77C,0.00590*%
%ADD76C,0.01200*%
%ADD71C,0.01378*%
%ADD75C,0.01600*%
%ADD73C,0.01772*%
%ADD74C,0.02400*%
%ADD29C,0.03937*%
%ADD78C,0.04724*%
%ADD26C,0.05918*%
%ADD23R,0.04331X0.03937*%
%ADD18R,0.04252X0.04134*%
%ADD70R,0.03937X0.04331*%
%ADD25C,0.13055*%
%ADD28R,0.07087X0.05512*%
X0Y0D02*
D02*
D10*
X167322Y14305D02*
X164173D01*
Y18259*
X159803*
Y14305*
X37126*
Y17866*
X27003*
Y79126*
X37047*
Y83399*
X159763*
Y79401*
X164094*
Y83399*
X167322*
Y79165*
X184423*
Y18417*
X167322*
Y14305*
D02*
D16*
X41732Y20070D03*
X48425D03*
X99383Y19029D03*
X103911Y37927D03*
X106076Y19029D03*
X110604Y37927D03*
X152952Y74007D03*
X159645D03*
D02*
D17*
X40354Y75385D03*
X47834D03*
X64147Y74147D03*
X71628D03*
X94291Y77887D03*
X101771D03*
X131299Y18693D03*
X138779D03*
X150787Y23417D03*
X158267D03*
D02*
D18*
X56273Y71293D03*
Y78183D03*
X80486Y71293D03*
Y78183D03*
X101352Y59482D03*
Y66372D03*
X111194Y47474D03*
Y54364D03*
D02*
D19*
X39836Y34383D03*
X46726D03*
X54994Y17651D03*
X61883D03*
X82356D03*
X89246D03*
X114639Y20013D03*
X121529D03*
D02*
D70*
X103911Y45998D03*
Y52691D03*
D02*
D71*
X57651Y27887D03*
Y31037D03*
Y34187D03*
Y37336D03*
Y40486D03*
Y43635D03*
Y46785D03*
Y49935D03*
Y53084D03*
Y56234D03*
Y59383D03*
Y62533D03*
X60801Y27887D03*
Y31037D03*
Y34187D03*
Y37336D03*
Y40486D03*
Y43635D03*
Y46785D03*
Y49935D03*
Y53084D03*
Y56234D03*
Y59383D03*
Y62533D03*
X63950Y27887D03*
Y31037D03*
Y34187D03*
Y37336D03*
Y40486D03*
Y43635D03*
Y46785D03*
Y49935D03*
Y53084D03*
Y56234D03*
Y59383D03*
Y62533D03*
X67100Y27887D03*
Y31037D03*
Y34187D03*
Y37336D03*
Y40486D03*
Y43635D03*
Y46785D03*
Y49935D03*
Y53084D03*
Y56234D03*
Y59383D03*
Y62533D03*
X70250Y27887D03*
Y31037D03*
Y34187D03*
Y37336D03*
Y40486D03*
Y43635D03*
Y46785D03*
Y49935D03*
Y53084D03*
Y56234D03*
Y59383D03*
Y62533D03*
X73399Y27887D03*
Y31037D03*
Y34187D03*
Y37336D03*
Y40486D03*
Y43635D03*
Y46785D03*
Y49935D03*
Y53084D03*
Y56234D03*
Y59383D03*
Y62533D03*
X76549Y27887D03*
Y31037D03*
Y34187D03*
Y37336D03*
Y40486D03*
Y43635D03*
Y46785D03*
Y49935D03*
Y53084D03*
Y56234D03*
Y59383D03*
Y62533D03*
X79698Y27887D03*
Y31037D03*
Y34187D03*
Y37336D03*
Y40486D03*
Y43635D03*
Y46785D03*
Y49935D03*
Y53084D03*
Y56234D03*
Y59383D03*
Y62533D03*
X82848Y27887D03*
Y31037D03*
Y34187D03*
Y37336D03*
Y40486D03*
Y43635D03*
Y46785D03*
Y49935D03*
Y53084D03*
Y56234D03*
Y59383D03*
Y62533D03*
X85998Y27887D03*
Y31037D03*
Y34187D03*
Y37336D03*
Y40486D03*
Y43635D03*
Y46785D03*
Y49935D03*
Y53084D03*
Y56234D03*
Y59383D03*
Y62533D03*
X89147Y27887D03*
Y31037D03*
Y34187D03*
Y37336D03*
Y40486D03*
Y43635D03*
Y46785D03*
Y49935D03*
Y53084D03*
Y56234D03*
Y59383D03*
Y62533D03*
X92297Y27887D03*
Y31037D03*
Y34187D03*
Y37336D03*
Y40486D03*
Y43635D03*
Y46785D03*
Y49935D03*
Y53084D03*
Y56234D03*
Y59383D03*
Y62533D03*
D02*
D20*
X120402Y51711D03*
X129502D03*
X138602D03*
D02*
D21*
X129502Y76112D03*
D02*
D22*
X39344Y25328D03*
X46037D03*
X67297Y20013D03*
X73990D03*
X87572Y71391D03*
X94265D03*
X102730Y25328D03*
X103124Y31037D03*
X109423Y25328D03*
X109817Y31037D03*
D02*
D23*
X39935Y62730D03*
Y69423D03*
X48006Y62730D03*
Y69423D03*
X111194Y59777D03*
Y66470D03*
D02*
D24*
X165919Y35072D03*
Y44915D03*
Y52789D03*
Y62631D03*
D02*
D25*
X175761Y26805D03*
Y70899D03*
D02*
D26*
Y39946D03*
Y57757D03*
D02*
D27*
X40106Y42077D03*
Y54705D03*
X47383Y42077D03*
Y54705D03*
D02*
D28*
X119856Y32809D03*
Y42257D03*
X137179Y32809D03*
Y42257D03*
D02*
D29*
X30683Y74992D03*
X166023Y26960D03*
D02*
D72*
X147809Y39108D03*
Y48163D03*
X151549Y39108D03*
Y48163D03*
X155289Y39108D03*
Y48163D03*
D02*
D73*
X62376Y38911D03*
Y42061D03*
Y48360D03*
Y57809D03*
X62572Y54856D03*
X68675Y35761D03*
Y42061D03*
Y48360D03*
Y57809D03*
X71824Y48360D03*
X74974Y42061D03*
Y48360D03*
X78124Y42061D03*
Y48360D03*
Y57809D03*
X81273Y42061D03*
X84423Y32612D03*
Y54659D03*
X87572Y42061D03*
X90722Y29462D03*
Y38911D03*
Y51509D03*
X93872Y26313D03*
X98202Y27887D03*
X100958Y37730D03*
X108045Y52494D03*
X114344Y27494D03*
D02*
D74*
X34226Y25328D03*
X35407Y39502D03*
X36574Y73574D03*
X36588Y35171D03*
X36653Y76488D03*
X37992Y20070D03*
X49777Y35368D03*
X51574Y73023D03*
Y75582D03*
X53124Y78084D03*
X54895Y20998D03*
X56273Y68045D03*
X62598Y69423D03*
X65748D03*
X70078D03*
X72834D03*
X83635Y71194D03*
X84620Y78281D03*
X89960Y76370D03*
Y79126D03*
X90131Y20998D03*
X97218Y72376D03*
X105708Y77887D03*
X105880Y60958D03*
X106470Y67061D03*
X108267Y77887D03*
X109448Y17708D03*
Y20661D03*
X111194Y44423D03*
X114541Y17061D03*
X115722Y49935D03*
X116706Y52100D03*
X116903Y47572D03*
X123596Y52100D03*
X126155Y47572D03*
Y49935D03*
X127362Y17905D03*
Y20661D03*
X132848Y48557D03*
X133045Y51116D03*
X135433Y23023D03*
X138582D03*
X138950Y70604D03*
X149212Y72433D03*
Y75189D03*
X150787Y27944D03*
X162795Y21055D03*
X164935Y39502D03*
X165131Y32317D03*
X169069Y75033D03*
X170446Y36155D03*
D02*
D75*
X55486Y32612D03*
X71824Y45210D03*
Y51509D03*
X78517Y16470D03*
X81273Y45210D03*
X85210Y16273D03*
X95446Y50131D03*
X97218Y55250D03*
X107257Y56037D03*
X115328Y23557D03*
X139147Y58006D03*
X140328Y60171D03*
D02*
D76*
X39344Y25328D02*
X34226D01*
X39836Y34383D02*
X37376D01*
X36588Y35171*
X40106Y42077D02*
X37983D01*
X35407Y39502*
X40354Y75385D02*
X36574Y73574D01*
X40354Y75385D02*
X36653Y76488D01*
X41732Y20070D02*
X37992D01*
X46726Y34383D02*
X48793D01*
X49777Y35368*
X47383Y42077D02*
X40106D01*
X47834Y75385D02*
X51574Y73023D01*
X47834Y75385D02*
X46063D01*
Y76763*
X51574Y75582*
X54895Y20998D02*
Y17750D01*
X54994Y17651*
X56273Y71293D02*
Y68045D01*
Y78183D02*
X53222D01*
X53124Y78084*
X60801Y40486D02*
X62376Y42061D01*
X60801Y49935D02*
X62376Y48360D01*
X60801Y59383D02*
X62376Y57809D01*
X62598Y69423D02*
Y71588D01*
X62376*
X64147Y74147*
X63950Y56234D02*
X62572Y54856D01*
X64147Y74147D02*
X65748Y72572D01*
Y69423*
X67297Y20013D02*
X61883Y17651D01*
X70250Y27887D02*
Y28084D01*
X73596*
Y20013*
X73990*
X70250Y40486D02*
X68675Y42061D01*
X70250Y49935D02*
X68675Y48360D01*
X70250Y59383D02*
X68675Y57809D01*
X71628Y74147D02*
X72612D01*
X70078Y71614*
Y69423*
X72834D02*
Y71785D01*
X73399*
X71628Y74147*
X73399Y27887D02*
X70250D01*
X73399Y43635D02*
X74974Y42061D01*
X73399Y46785D02*
X71824Y48360D01*
X76549Y43635D02*
X78124Y42061D01*
X76549Y46785D02*
X74974Y48360D01*
X78517Y16470D02*
X70840D01*
X67297Y20013*
X79698Y40486D02*
X81273Y42061D01*
X79698Y49935D02*
X78124Y48360D01*
X79698Y59383D02*
X78124Y57809D01*
X80486Y71293D02*
X83537D01*
X83635Y71194*
X80486Y78183D02*
Y78281D01*
X84620*
X82356Y17651D02*
X85210Y16273D01*
X85998Y34187D02*
X84423Y32612D01*
X85998Y56234D02*
X84423Y54659D01*
X89147Y31037D02*
X90722Y29462D01*
X89147Y40486D02*
X87572Y42061D01*
X89147Y49935D02*
X90722Y51509D01*
X89246Y17651D02*
Y20112D01*
X90131Y20998*
X92297Y27887D02*
X93872Y26313D01*
X94265Y71391D02*
X97218Y72376D01*
X94291Y77887D02*
X93478D01*
Y78872*
X89960Y79126*
X94291Y77887D02*
X89960Y76370D01*
X101352Y59482D02*
X101943D01*
Y58399*
X105880Y60958*
X101352Y66372D02*
X105781D01*
X106470Y67061*
X101771Y77887D02*
X105708D01*
X103911Y37927D02*
Y37730D01*
X100958*
X106076Y19029D02*
X108128D01*
X109448Y17708*
X106076Y19029D02*
X107817D01*
X109448Y20661*
X111194Y47474D02*
X109128D01*
X103911Y52691*
X111194Y47474D02*
Y44423D01*
Y66470D02*
Y67061D01*
X106470*
X114639Y20013D02*
X114541Y17061D01*
X116903Y47572D02*
Y48213D01*
X120402Y51711*
Y50328*
X117695*
X117302Y49935*
X115722*
X120402Y51711D02*
X123207D01*
X123596Y52100*
X120402Y51711D02*
Y50919D01*
X117887*
X116706Y52100*
X121529Y20013D02*
X118084Y23557D01*
X115328*
X126155Y49935D02*
X127725D01*
X129502Y51711*
Y50919*
X126155Y47572*
X129502Y51711D02*
X132848Y48557D01*
X129502Y51711D02*
X132450D01*
X133045Y51116*
X131299Y18693D02*
X127362Y17905D01*
X131299Y18693D02*
X130486D01*
Y20661*
X127362*
X138779Y18693D02*
Y19677D01*
X135433Y23023*
X138779Y18693D02*
X138582Y23023D01*
X150787Y23417D02*
Y27944D01*
X151549Y48163D02*
Y55250D01*
X150761Y56234*
X141165*
X138602Y53670*
Y51711*
X152952Y74007D02*
X149212Y72433D01*
X152952Y74007D02*
X149212Y75189D01*
X158267Y23417D02*
X162795Y21055D01*
X165131Y32317D02*
X155387D01*
X151549Y36155*
Y39108*
X165919Y35072D02*
X164935Y36647D01*
Y39502*
X165919Y35072D02*
X167494D01*
Y36155*
X170446*
X165919Y35072D02*
X165131Y32317D01*
D02*
D77*
X40106Y54705D02*
Y62559D01*
X39935Y62730*
X46037Y25328D02*
Y24935D01*
X49777*
X51155Y23557*
X63360*
X66706Y26903*
Y27887*
X67100*
X47383Y54705D02*
Y62108D01*
X48006Y62730*
X48425Y20070D02*
X47809D01*
Y20630*
X47244Y21194*
Y25328*
X46037*
X57651Y59383D02*
X56470D01*
X55092Y60761*
Y66076*
X52533Y68635*
X48793*
X48006Y69423*
X60801Y31037D02*
X63950Y34187D01*
X60801Y31037D02*
X59226Y32612D01*
X55486*
X60801Y56234D02*
Y56431D01*
X59423Y57809*
X54895*
X53714Y58990*
Y63124*
X50958Y65880*
X43478*
X39935Y69423*
X67100Y62533D02*
X65525Y60958D01*
Y45998*
X66313Y45210*
X71824*
X70250Y31037D02*
X70053D01*
X68675Y32415*
Y35761*
X73399Y59383D02*
X71824Y57809D01*
Y51509*
X76549Y49935D02*
Y50328D01*
X77730Y51509*
X80486*
X81273Y52297*
Y65880*
X82848Y67454*
X86982*
X87572Y68045*
Y71391*
X79698Y31037D02*
X81273Y30053D01*
Y25328*
X82454Y23163*
X93084*
X99383Y19029*
X79698Y34187D02*
X78124Y35761D01*
Y38320*
X77533Y38911*
X62376*
X85998Y43635D02*
X84620Y45210D01*
X81273*
X89147Y37336D02*
X90722Y38911D01*
X89147Y56234D02*
X90722Y57809D01*
X93675*
X98990Y63124*
X134423*
X139147Y58006*
X92297Y31037D02*
X92691D01*
Y30643*
X95446Y27887*
X98202*
X92297Y43635D02*
X101549D01*
X103911Y45998*
X92297Y46785D02*
X95446Y49935D01*
Y50131*
X92297Y53084D02*
X98202D01*
X101155Y56037*
X107257*
X92297Y56234D02*
X96234D01*
X97218Y55250*
X92297Y59383D02*
X92494D01*
X95840Y62730*
Y66470*
X99974Y70604*
X115328*
X121037Y64895*
X135604*
X140328Y60171*
X102730Y25328D02*
X100171Y25131D01*
X99187Y24344*
X89541*
X87572Y26313*
Y35761*
X85998Y37336*
X103124Y31037D02*
X95053D01*
X93478Y32612*
X90722*
X89147Y34187*
X108045Y52494D02*
X109324D01*
X111194Y54364*
X109423Y25328D02*
X144659D01*
X148006Y28675*
Y39108*
X147809*
X109423Y25328D02*
X109029D01*
X106667Y27691*
Y33006*
X105486Y34187*
X92297*
X109817Y31037D02*
X110801D01*
X114344Y27494*
X110604Y37927D02*
Y36746D01*
X114541Y32809*
X119856*
X110604Y37927D02*
X109029D01*
Y38517*
X105486Y42061*
X90722*
X89147Y43635*
X111194Y59777D02*
Y54364D01*
X114344Y27494D02*
X140525D01*
X145053Y32021*
Y47179*
X146037Y48163*
X147809*
X137179Y42257D02*
X135407D01*
X130092Y37730*
X116509*
X112376Y42061*
X107848*
X105486Y44423*
Y45998*
X103911*
X165919Y44915D02*
Y45604D01*
X159620*
X158045Y44226*
X156470*
X155092Y42651*
Y39108*
X155289*
X165919Y52789D02*
X164935D01*
Y54265*
X157159*
X155092Y52198*
Y48163*
X155289*
D02*
D78*
X165919Y62631D02*
X166313D01*
Y62730*
X159817Y62828*
X159645Y74007*
X165919Y62631D02*
Y62927D01*
X165131Y62828*
X166706*
Y62927*
X145643*
X144659Y62235*
Y56824*
X140333Y52498*
X138602*
Y51711*
X0Y0D02*
M02*
