%FSLAX23Y23*%
%MOIN*%
G04 EasyPC Gerber Version 17.0 Build 3379 *
%ADD86R,0.02362X0.04724*%
%ADD78R,0.03937X0.04331*%
%ADD72R,0.04134X0.04252*%
%ADD73R,0.04331X0.03937*%
%ADD76R,0.04800X0.08800*%
%ADD83R,0.05906X0.07480*%
%ADD28R,0.06299X0.07087*%
%ADD80R,0.08661X0.04724*%
%ADD77R,0.14173X0.08661*%
%ADD24C,0.00400*%
%ADD22C,0.00500*%
%ADD92C,0.00590*%
%ADD91C,0.01200*%
%ADD75C,0.01378*%
%ADD90C,0.01600*%
%ADD88C,0.01772*%
%ADD89C,0.02400*%
%ADD85C,0.03937*%
%ADD87C,0.03937*%
%ADD93C,0.04724*%
%ADD82C,0.05918*%
%ADD81C,0.13055*%
%ADD79R,0.04331X0.03937*%
%ADD29R,0.04252X0.04134*%
%ADD74R,0.03937X0.04331*%
%ADD84R,0.07087X0.05512*%
X0Y0D02*
D02*
D22*
X1844Y228D02*
X98D01*
Y918*
X1844*
Y228*
D02*
D24*
X267Y891D02*
Y255D01*
D02*
D28*
X372Y275D03*
X374Y850D03*
X482Y275D03*
X484Y850D03*
X624Y826D03*
X734D03*
X933Y863D03*
X972Y275D03*
X1043Y863D03*
X1082Y275D03*
X1283Y292D03*
X1393D03*
X1476Y281D03*
X1488Y814D03*
X1586Y281D03*
X1598Y814D03*
D02*
D29*
X563Y797D03*
Y866D03*
X805Y797D03*
Y866D03*
X1014Y679D03*
Y748D03*
X1112Y559D03*
Y628D03*
D02*
D72*
X398Y428D03*
X467D03*
X550Y261D03*
X619D03*
X824D03*
X892D03*
X1146Y285D03*
X1215D03*
D02*
D73*
X1039Y464D03*
X1106D03*
D02*
D74*
X1039Y548D03*
Y615D03*
D02*
D75*
X577Y363D03*
Y395D03*
Y426D03*
Y458D03*
Y489D03*
Y521D03*
Y552D03*
Y584D03*
Y615D03*
Y647D03*
Y678D03*
Y710D03*
X608Y363D03*
Y395D03*
Y426D03*
Y458D03*
Y489D03*
Y521D03*
Y552D03*
Y584D03*
Y615D03*
Y647D03*
Y678D03*
Y710D03*
X640Y363D03*
Y395D03*
Y426D03*
Y458D03*
Y489D03*
Y521D03*
Y552D03*
Y584D03*
Y615D03*
Y647D03*
Y678D03*
Y710D03*
X671Y363D03*
Y395D03*
Y426D03*
Y458D03*
Y489D03*
Y521D03*
Y552D03*
Y584D03*
Y615D03*
Y647D03*
Y678D03*
Y710D03*
X702Y363D03*
Y395D03*
Y426D03*
Y458D03*
Y489D03*
Y521D03*
Y552D03*
Y584D03*
Y615D03*
Y647D03*
Y678D03*
Y710D03*
X734Y363D03*
Y395D03*
Y426D03*
Y458D03*
Y489D03*
Y521D03*
Y552D03*
Y584D03*
Y615D03*
Y647D03*
Y678D03*
Y710D03*
X765Y363D03*
Y395D03*
Y426D03*
Y458D03*
Y489D03*
Y521D03*
Y552D03*
Y584D03*
Y615D03*
Y647D03*
Y678D03*
Y710D03*
X797Y363D03*
Y395D03*
Y426D03*
Y458D03*
Y489D03*
Y521D03*
Y552D03*
Y584D03*
Y615D03*
Y647D03*
Y678D03*
Y710D03*
X828Y363D03*
Y395D03*
Y426D03*
Y458D03*
Y489D03*
Y521D03*
Y552D03*
Y584D03*
Y615D03*
Y647D03*
Y678D03*
Y710D03*
X860Y363D03*
Y395D03*
Y426D03*
Y458D03*
Y489D03*
Y521D03*
Y552D03*
Y584D03*
Y615D03*
Y647D03*
Y678D03*
Y710D03*
X891Y363D03*
Y395D03*
Y426D03*
Y458D03*
Y489D03*
Y521D03*
Y552D03*
Y584D03*
Y615D03*
Y647D03*
Y678D03*
Y710D03*
X923Y363D03*
Y395D03*
Y426D03*
Y458D03*
Y489D03*
Y521D03*
Y552D03*
Y584D03*
Y615D03*
Y647D03*
Y678D03*
Y710D03*
D02*
D76*
X1204Y602D03*
X1295D03*
X1386D03*
D02*
D77*
X1295Y846D03*
D02*
D78*
X393Y338D03*
X460D03*
X673Y285D03*
X740D03*
X876Y798D03*
X943D03*
X1027Y338D03*
X1031Y395D03*
X1094Y338D03*
X1098Y395D03*
D02*
D79*
X399Y712D03*
Y779D03*
X480Y712D03*
Y779D03*
X1112Y682D03*
Y749D03*
D02*
D80*
X1659Y435D03*
Y534D03*
Y612D03*
Y711D03*
D02*
D81*
X1758Y353D03*
Y793D03*
D02*
D82*
Y484D03*
Y662D03*
D02*
D83*
X401Y505D03*
Y631D03*
X474Y505D03*
Y631D03*
D02*
D84*
X1199Y413D03*
Y507D03*
X1372Y413D03*
Y507D03*
D02*
D85*
X307Y767D03*
X1665Y290D03*
D02*
D86*
X1478Y476D03*
Y566D03*
X1515Y476D03*
Y566D03*
X1553Y476D03*
Y566D03*
D02*
D87*
X303Y369D03*
Y419D03*
Y469D03*
Y519D03*
Y569D03*
Y619D03*
Y669D03*
D02*
D88*
X624Y474D03*
Y505D03*
Y568D03*
Y663D03*
X626Y633D03*
X687Y442D03*
Y505D03*
Y568D03*
Y663D03*
X718Y568D03*
X750Y505D03*
Y568D03*
X781Y505D03*
Y568D03*
Y663D03*
X813Y505D03*
X844Y411D03*
Y631D03*
X876Y505D03*
X907Y379D03*
Y474D03*
Y600D03*
X939Y348D03*
X982Y363D03*
X1010Y462D03*
X1077Y615D03*
X1143Y359D03*
D02*
D89*
X328Y277D03*
X330Y832D03*
Y857D03*
X342Y338D03*
X354Y479D03*
X366Y436D03*
X439Y812D03*
X498Y438D03*
X527Y834D03*
X531Y865D03*
X549Y294D03*
X563Y765D03*
X604Y779D03*
X640D03*
X714D03*
X748D03*
X836Y796D03*
X846Y867D03*
X891Y857D03*
Y881D03*
X901Y294D03*
X972Y808D03*
X1039Y259D03*
Y287D03*
X1059Y696D03*
X1065Y755D03*
X1100Y863D03*
X1112Y529D03*
X1126Y863D03*
X1145Y255D03*
X1165Y615D03*
X1167Y590D03*
X1169Y564D03*
X1234Y611D03*
X1262Y566D03*
Y590D03*
X1325Y275D03*
Y314D03*
X1328Y570D03*
X1330Y596D03*
X1352Y290D03*
X1354Y259D03*
X1386Y818D03*
X1445Y820D03*
Y842D03*
X1502Y332D03*
X1543Y281D03*
X1649Y479D03*
X1651Y408D03*
X1691Y835D03*
X1704Y446D03*
D02*
D90*
X555Y411D03*
X718Y537D03*
Y600D03*
X785Y249D03*
X813Y537D03*
X852Y247D03*
X954Y594D03*
X978Y637D03*
X1065Y655D03*
X1214Y251D03*
X1391Y680D03*
X1407Y702D03*
D02*
D91*
X372Y275D02*
X328D01*
Y277*
X374Y850D02*
X352D01*
Y832*
X330*
X374Y850D02*
X354D01*
Y857*
X330*
X393Y338D02*
X342D01*
X398Y428D02*
X374D01*
X366Y436*
X401Y505D02*
X380D01*
X354Y479*
X467Y428D02*
X488D01*
X498Y438*
X474Y505D02*
X401D01*
X484Y850D02*
X492D01*
Y859*
X439Y812*
X484Y850D02*
X506D01*
Y834*
X527*
X549Y294D02*
Y262D01*
X550Y261*
X563Y797D02*
Y765D01*
Y866D02*
X532D01*
X531Y865*
X604Y779D02*
Y800D01*
X624*
Y826*
X608Y489D02*
X624Y505D01*
X608Y584D02*
X624Y568D01*
X608Y678D02*
X624Y663D01*
Y826D02*
X640Y810D01*
Y779*
Y647D02*
X626Y633D01*
X673Y285D02*
X619Y261D01*
X702Y363D02*
Y365D01*
X736*
Y285*
X740*
X702Y489D02*
X687Y505D01*
X702Y584D02*
X687Y568D01*
X702Y678D02*
X687Y663D01*
X734Y363D02*
X702D01*
X734Y521D02*
X750Y505D01*
X734Y552D02*
X718Y568D01*
X734Y826D02*
X726D01*
X714Y814*
Y779*
X748D02*
Y802D01*
X734*
Y826*
X765Y521D02*
X781Y505D01*
X765Y552D02*
X750Y568D01*
X785Y249D02*
X708D01*
X673Y285*
X797Y489D02*
X813Y505D01*
X797Y584D02*
X781Y568D01*
X797Y678D02*
X781Y663D01*
X805Y797D02*
X835D01*
X836Y796*
X805Y866D02*
Y867D01*
X846*
X824Y261D02*
X852Y247D01*
X860Y426D02*
X844Y411D01*
X860Y647D02*
X844Y631D01*
X891Y395D02*
X907Y379D01*
X891Y489D02*
X876Y505D01*
X891Y584D02*
X907Y600D01*
X892Y261D02*
Y286D01*
X901Y294*
X923Y363D02*
X939Y348D01*
X933Y863D02*
X935D01*
Y873*
X891Y881*
X933Y863D02*
X891Y857D01*
X943Y798D02*
X972Y808D01*
X1014Y679D02*
X1019D01*
Y668*
X1059Y696*
X1014Y748D02*
X1058D01*
X1065Y755*
X1039Y464D02*
Y462D01*
X1010*
X1043Y863D02*
X1100D01*
X1082Y275D02*
X1055D01*
X1039Y259*
X1082Y275D02*
X1051D01*
X1039Y287*
X1112Y559D02*
X1095D01*
X1039Y615*
X1112Y559D02*
Y529D01*
Y749D02*
Y755D01*
X1065*
X1146Y285D02*
X1145Y255D01*
X1169Y564D02*
Y567D01*
X1204Y602*
X1179*
X1167Y590*
X1204Y602D02*
X1224D01*
X1234Y611*
X1204Y602D02*
Y594D01*
X1187*
X1165Y615*
X1215Y285D02*
X1214Y251D01*
X1262Y590D02*
X1283D01*
X1295Y602*
X1283Y292D02*
X1307D01*
X1325Y275*
X1283Y292D02*
X1305D01*
Y314*
X1325*
X1295Y602D02*
Y600D01*
X1262Y566*
X1295Y602D02*
X1328Y570D01*
X1295Y602D02*
X1324D01*
X1330Y596*
X1393Y292D02*
X1354D01*
X1352Y290*
X1393Y292D02*
X1354Y259D01*
X1476Y281D02*
Y306D01*
X1502Y332*
X1488Y814D02*
Y818D01*
X1492*
Y810*
X1445Y820*
X1488Y814D02*
X1445Y842D01*
X1515Y566D02*
Y637D01*
X1508Y647*
X1412*
X1386Y621*
Y602*
X1586Y281D02*
X1543D01*
X1651Y408D02*
X1554D01*
X1515Y446*
Y476*
X1659Y435D02*
X1649Y451D01*
Y479*
X1659Y435D02*
X1675D01*
Y446*
X1704*
X1659Y435D02*
X1651Y408D01*
D02*
D92*
X303Y569D02*
Y574D01*
X507*
X535Y546*
Y466*
X559Y442*
X653*
X671Y426*
X401Y631D02*
Y710D01*
X399Y712*
X460Y338D02*
Y340D01*
X431Y369*
X303*
X303Y369*
X460Y338D02*
Y334D01*
X498*
X512Y320*
X634*
X667Y353*
Y363*
X671*
X474Y631D02*
Y706D01*
X480Y712*
X482Y275D02*
X478D01*
Y279*
X460Y296*
Y338*
X577Y678D02*
X565D01*
X551Y692*
Y745*
X525Y771*
X488*
X480Y779*
X608Y363D02*
X606D01*
Y355*
X598Y348*
X531*
X482Y397*
X375*
X303Y469*
X608Y395D02*
X640Y426D01*
X608Y395D02*
X592Y411D01*
X555*
X608Y647D02*
Y649D01*
X594Y663*
X549*
X537Y674*
Y716*
X510Y743*
X435*
X399Y779*
X640Y363D02*
Y359D01*
X614Y334*
X521*
X472Y383*
X339*
X303Y419*
X671Y395D02*
Y393D01*
X657Y379*
X551*
X537Y393*
Y426*
X517Y446*
Y544*
X506Y556*
X340*
X303Y519*
X671Y710D02*
X655Y694D01*
Y544*
X663Y537*
X718*
X702Y395D02*
X701D01*
X687Y409*
Y442*
X734Y678D02*
X718Y663D01*
Y600*
X765Y584D02*
Y588D01*
X777Y600*
X805*
X813Y607*
Y743*
X828Y759*
X870*
X876Y765*
Y798*
X797Y395D02*
X813Y385D01*
Y338*
X825Y316*
X931*
X972Y275*
X797Y426D02*
X781Y442D01*
Y468*
X775Y474*
X624*
X860Y521D02*
X846Y537D01*
X813*
X891Y458D02*
X907Y474D01*
X891Y647D02*
X907Y663D01*
X939*
X994Y718*
X1352*
X1390Y680*
X1391*
X923Y395D02*
X927D01*
Y391*
X954Y363*
X982*
X923Y521D02*
X1012D01*
X1039Y548*
X923Y552D02*
X954Y584D01*
Y594*
X923Y615D02*
X982D01*
X1015Y649*
X1059*
X1065Y655*
X923Y647D02*
X951D01*
Y637*
X978*
X923Y678D02*
X925D01*
X958Y712*
Y749*
X1000Y790*
X1153*
X1210Y733*
X1376*
X1407Y702*
X1027Y338D02*
X1002Y336D01*
X992Y328*
X895*
X876Y348*
Y442*
X860Y458*
X1031Y395D02*
X951D01*
X935Y411*
X907*
X891Y426*
X1077Y615D02*
X1099D01*
X1112Y628*
X1094Y338D02*
X1447D01*
X1480Y371*
Y476*
X1478*
X1094Y338D02*
X1090D01*
X1067Y361*
Y415*
X1055Y426*
X923*
X1098Y395D02*
X1108D01*
X1143Y359*
X1106Y464D02*
Y452D01*
X1145Y413*
X1199*
X1106Y464D02*
X1090D01*
Y470*
X1055Y505*
X907*
X891Y521*
X1112Y682D02*
Y628D01*
X1143Y359D02*
X1405D01*
X1451Y405*
Y556*
X1460Y566*
X1478*
X1372Y507D02*
X1354D01*
X1301Y462*
X1165*
X1124Y505*
X1078*
X1055Y529*
Y548*
X1039*
X1659Y534D02*
Y540D01*
X1596*
X1580Y527*
X1565*
X1551Y511*
Y476*
X1553*
X1659Y612D02*
X1649D01*
Y627*
X1572*
X1551Y606*
Y566*
X1553*
D02*
D93*
X1659Y711D02*
X1663D01*
Y712*
X1598Y713*
Y814*
X1659Y711D02*
Y714D01*
X1651Y713*
X1667*
Y714*
X1456*
X1447Y707*
Y653*
X1403Y609*
X1386*
Y602*
X0Y0D02*
M02*
