%FSLAX23Y23*%
%MOIN*%
G04 EasyPC Gerber Version 17.0 Build 3379 *
%ADD123R,0.02962X0.05324*%
%ADD118R,0.04537X0.04931*%
%ADD112R,0.04734X0.04852*%
%ADD113R,0.04931X0.04537*%
%ADD116R,0.05400X0.09400*%
%ADD121R,0.06506X0.08080*%
%ADD110R,0.06899X0.07687*%
%ADD120R,0.09261X0.05324*%
%ADD117R,0.14773X0.09261*%
%ADD115C,0.01978*%
%ADD12C,0.04537*%
%ADD21C,0.04537*%
%ADD11C,0.06518*%
%ADD10C,0.13655*%
%ADD119R,0.04931X0.04537*%
%ADD111R,0.04852X0.04734*%
%ADD114R,0.04537X0.04931*%
%ADD122R,0.07687X0.06112*%
X0Y0D02*
D02*
D10*
X1758Y353D03*
Y793D03*
D02*
D11*
Y484D03*
Y662D03*
D02*
D12*
X307Y767D03*
X1665Y290D03*
D02*
D21*
X303Y369D03*
Y419D03*
Y469D03*
Y519D03*
Y569D03*
Y619D03*
Y669D03*
D02*
D110*
X372Y275D03*
X374Y850D03*
X482Y275D03*
X484Y850D03*
X624Y826D03*
X734D03*
X933Y863D03*
X972Y275D03*
X1043Y863D03*
X1082Y275D03*
X1283Y292D03*
X1393D03*
X1476Y281D03*
X1488Y814D03*
X1586Y281D03*
X1598Y814D03*
D02*
D111*
X563Y797D03*
Y866D03*
X805Y797D03*
Y866D03*
X1014Y679D03*
Y748D03*
X1112Y559D03*
Y628D03*
D02*
D112*
X398Y428D03*
X467D03*
X550Y261D03*
X619D03*
X824D03*
X892D03*
X1146Y285D03*
X1215D03*
D02*
D113*
X1039Y464D03*
X1106D03*
D02*
D114*
X1039Y548D03*
Y615D03*
D02*
D115*
X577Y363D03*
Y395D03*
Y426D03*
Y458D03*
Y489D03*
Y521D03*
Y552D03*
Y584D03*
Y615D03*
Y647D03*
Y678D03*
Y710D03*
X608Y363D03*
Y395D03*
Y426D03*
Y458D03*
Y489D03*
Y521D03*
Y552D03*
Y584D03*
Y615D03*
Y647D03*
Y678D03*
Y710D03*
X640Y363D03*
Y395D03*
Y426D03*
Y458D03*
Y489D03*
Y521D03*
Y552D03*
Y584D03*
Y615D03*
Y647D03*
Y678D03*
Y710D03*
X671Y363D03*
Y395D03*
Y426D03*
Y458D03*
Y489D03*
Y521D03*
Y552D03*
Y584D03*
Y615D03*
Y647D03*
Y678D03*
Y710D03*
X702Y363D03*
Y395D03*
Y426D03*
Y458D03*
Y489D03*
Y521D03*
Y552D03*
Y584D03*
Y615D03*
Y647D03*
Y678D03*
Y710D03*
X734Y363D03*
Y395D03*
Y426D03*
Y458D03*
Y489D03*
Y521D03*
Y552D03*
Y584D03*
Y615D03*
Y647D03*
Y678D03*
Y710D03*
X765Y363D03*
Y395D03*
Y426D03*
Y458D03*
Y489D03*
Y521D03*
Y552D03*
Y584D03*
Y615D03*
Y647D03*
Y678D03*
Y710D03*
X797Y363D03*
Y395D03*
Y426D03*
Y458D03*
Y489D03*
Y521D03*
Y552D03*
Y584D03*
Y615D03*
Y647D03*
Y678D03*
Y710D03*
X828Y363D03*
Y395D03*
Y426D03*
Y458D03*
Y489D03*
Y521D03*
Y552D03*
Y584D03*
Y615D03*
Y647D03*
Y678D03*
Y710D03*
X860Y363D03*
Y395D03*
Y426D03*
Y458D03*
Y489D03*
Y521D03*
Y552D03*
Y584D03*
Y615D03*
Y647D03*
Y678D03*
Y710D03*
X891Y363D03*
Y395D03*
Y426D03*
Y458D03*
Y489D03*
Y521D03*
Y552D03*
Y584D03*
Y615D03*
Y647D03*
Y678D03*
Y710D03*
X923Y363D03*
Y395D03*
Y426D03*
Y458D03*
Y489D03*
Y521D03*
Y552D03*
Y584D03*
Y615D03*
Y647D03*
Y678D03*
Y710D03*
D02*
D116*
X1204Y602D03*
X1295D03*
X1386D03*
D02*
D117*
X1295Y846D03*
D02*
D118*
X393Y338D03*
X460D03*
X673Y285D03*
X740D03*
X876Y798D03*
X943D03*
X1027Y338D03*
X1031Y395D03*
X1094Y338D03*
X1098Y395D03*
D02*
D119*
X399Y712D03*
Y779D03*
X480Y712D03*
Y779D03*
X1112Y682D03*
Y749D03*
D02*
D120*
X1659Y435D03*
Y534D03*
Y612D03*
Y711D03*
D02*
D121*
X401Y505D03*
Y631D03*
X474Y505D03*
Y631D03*
D02*
D122*
X1199Y413D03*
Y507D03*
X1372Y413D03*
Y507D03*
D02*
D123*
X1478Y476D03*
Y566D03*
X1515Y476D03*
Y566D03*
X1553Y476D03*
Y566D03*
X0Y0D02*
M02*
