%FSLAX23Y23*%
%MOIN*%
G04 EasyPC Gerber Version 17.0 Build 3379 *
%ADD17C,0.03650*%
%ADD13C,0.04750*%
%ADD11C,0.04921*%
%ADD12C,0.05550*%
%ADD144C,0.07087*%
%ADD143C,0.09068*%
%ADD142C,0.16205*%
%AMT16*0 Thermal pad*7,0,0,0.04750,0.01600,0.01000,0*%
%ADD16T16*%
%AMT15*0 Thermal pad*7,0,0,0.04921,0.01772,0.01000,0*%
%ADD15T15*%
%AMT14*0 Thermal pad*7,0,0,0.05550,0.02400,0.01000,0*%
%ADD14T14*%
%AMT145*0 Thermal pad*7,0,0,0.07087,0.03937,0.01000,0*%
%ADD145T145*%
X0Y0D02*
D02*
D11*
X624Y474D03*
Y663D03*
X626Y633D03*
X718Y568D03*
X750Y505D03*
Y568D03*
X781Y505D03*
X844Y411D03*
Y631D03*
X907Y379D03*
Y474D03*
X982Y363D03*
X1010Y462D03*
X1080Y609D03*
X1143Y359D03*
D02*
D12*
X328Y277D03*
X330Y832D03*
Y857D03*
X354Y479D03*
X366Y436D03*
X549Y294D03*
X563Y765D03*
X714Y779D03*
X748D03*
X846Y867D03*
X1039Y259D03*
Y287D03*
X1065Y755D03*
X1100Y863D03*
X1112Y529D03*
X1126Y863D03*
X1145Y255D03*
X1157Y584D03*
X1167Y605D03*
X1169Y560D03*
X1236Y605D03*
X1325Y275D03*
Y314D03*
X1445Y820D03*
Y842D03*
X1502Y332D03*
X1649Y479D03*
X1651Y408D03*
X1691Y835D03*
X1704Y446D03*
D02*
D13*
X555Y411D03*
X718Y537D03*
Y600D03*
X785Y249D03*
X813Y537D03*
X852Y247D03*
X954Y586D03*
X972Y637D03*
X1073Y645D03*
X1391Y665D03*
X1403Y686D03*
D02*
D14*
X342Y338D03*
X439Y812D03*
X498Y438D03*
X527Y834D03*
X531Y865D03*
X604Y779D03*
X640D03*
X836Y796D03*
X891Y857D03*
Y881D03*
X901Y294D03*
X972Y808D03*
X1059Y694D03*
X1262Y560D03*
Y584D03*
X1328Y570D03*
X1330Y596D03*
X1352Y290D03*
X1354Y259D03*
X1390Y790D03*
X1543Y281D03*
D02*
D15*
X624Y505D03*
Y568D03*
X687Y442D03*
Y505D03*
Y568D03*
Y663D03*
X781Y568D03*
Y663D03*
X813Y505D03*
X876D03*
X907Y600D03*
X939Y348D03*
D02*
D16*
X1153Y320D03*
D02*
D17*
X1844Y228D02*
X270D01*
Y918*
X1844*
Y228*
D02*
D142*
X1758Y353D03*
Y793D03*
D02*
D143*
Y484D03*
Y662D03*
D02*
D144*
X303Y369D03*
Y419D03*
Y469D03*
Y519D03*
Y569D03*
Y619D03*
D02*
D145*
Y669D03*
X0Y0D02*
M02*
