%FSLAX23Y23*%
%MOIN*%
G04 EasyPC Gerber Version 17.0 Build 3379 *
%ADD81C,0.00500*%
%ADD109C,0.10000*%
X0Y0D02*
D02*
D81*
X403Y466D02*
Y428D01*
X434*
X403Y516D02*
Y478D01*
X434*
X403Y566D02*
Y528D01*
X434*
X403Y616D02*
Y578D01*
X434*
X403Y666D02*
Y628D01*
X434*
X403Y716D02*
Y678D01*
X434*
X403Y766D02*
Y728D01*
X434*
X428Y336D02*
Y374D01*
X460*
X453Y355D02*
X428D01*
Y336D02*
X460D01*
X430Y891D02*
Y929D01*
X462*
X455Y910D02*
X430D01*
Y891D02*
X462D01*
X430Y917D02*
Y954D01*
X462*
X455Y936D02*
X430D01*
Y917D02*
X462D01*
X442Y397D02*
Y435D01*
X474*
X467Y416D02*
X442D01*
Y397D02*
X474D01*
X454Y539D02*
Y576D01*
X485*
X479Y558D02*
X454D01*
Y539D02*
X485D01*
X466Y496D02*
Y533D01*
X497*
X491Y514D02*
X466D01*
Y496D02*
X497D01*
X539Y872D02*
Y909D01*
X570*
X564Y890D02*
X539D01*
Y872D02*
X570D01*
X598Y498D02*
Y535D01*
X629*
X623Y516D02*
X598D01*
Y498D02*
X629D01*
X627Y893D02*
Y931D01*
X659*
X652Y912D02*
X627D01*
Y893D02*
X659D01*
X631Y925D02*
Y962D01*
X662*
X656Y943D02*
X631D01*
Y925D02*
X662D01*
X649Y354D02*
Y391D01*
X680*
X674Y373D02*
X649D01*
Y354D02*
X680D01*
X655Y470D02*
Y507D01*
X674*
X680Y504*
X683Y501*
X686Y495*
Y482*
X683Y476*
X680Y473*
X674Y470*
X655*
X663Y824D02*
Y862D01*
X694*
X688Y843D02*
X663D01*
Y824D02*
X694D01*
X704Y838D02*
Y876D01*
X735*
X729Y857D02*
X704D01*
Y838D02*
X735D01*
X733Y533D02*
X746D01*
X739D02*
Y570D01*
X733D02*
X746D01*
X733Y564D02*
X746D01*
X739D02*
Y602D01*
X733D02*
X746D01*
X733Y627D02*
X746D01*
X739D02*
Y665D01*
X733D02*
X746D01*
X733Y722D02*
X746D01*
X739D02*
Y759D01*
X733D02*
X746D01*
X735Y692D02*
X748D01*
X741D02*
Y730D01*
X735D02*
X748D01*
X740Y838D02*
Y876D01*
X771*
X765Y857D02*
X740D01*
Y838D02*
X771D01*
X796Y501D02*
X809D01*
X802D02*
Y539D01*
X796D02*
X809D01*
X796Y564D02*
X809D01*
X802D02*
Y602D01*
X796D02*
X809D01*
X796Y627D02*
X809D01*
X802D02*
Y665D01*
X796D02*
X809D01*
X796Y722D02*
X809D01*
X802D02*
Y759D01*
X796D02*
X809D01*
X814Y838D02*
Y876D01*
X846*
X839Y857D02*
X814D01*
Y838D02*
X846D01*
X818Y596D02*
Y633D01*
X837*
X843Y630*
X846Y627*
X849Y621*
Y608*
X846Y602*
X843Y599*
X837Y596*
X818*
X828Y627D02*
X840D01*
X834D02*
Y665D01*
X828D02*
X840D01*
X818Y659D02*
Y696D01*
X837*
X843Y693*
X846Y690*
X849Y684*
Y671*
X846Y665*
X843Y662*
X837Y659*
X818*
X848Y838D02*
Y876D01*
X879*
X873Y857D02*
X848D01*
Y838D02*
X879D01*
X859Y564D02*
X872D01*
X865D02*
Y602D01*
X859D02*
X872D01*
X859Y627D02*
X872D01*
X865D02*
Y665D01*
X859D02*
X872D01*
X891Y564D02*
X903D01*
X897D02*
Y602D01*
X891D02*
X903D01*
X891Y627D02*
X903D01*
X897D02*
Y665D01*
X891D02*
X903D01*
X891Y722D02*
X903D01*
X897D02*
Y759D01*
X891D02*
X903D01*
X885Y309D02*
Y346D01*
X904*
X910Y343*
X913Y340*
X916Y334*
Y321*
X913Y315*
X910Y312*
X904Y309*
X885*
X922Y564D02*
X935D01*
X928D02*
Y602D01*
X922D02*
X935D01*
X913Y596D02*
Y633D01*
X931*
X938Y630*
X941Y627*
X944Y621*
Y608*
X941Y602*
X938Y599*
X931Y596*
X913*
X936Y856D02*
Y893D01*
X968*
X961Y875D02*
X936D01*
Y856D02*
X968D01*
X954Y470D02*
X966D01*
X960D02*
Y507D01*
X954D02*
X966D01*
X954Y690D02*
X966D01*
X960D02*
Y728D01*
X954D02*
X966D01*
X946Y927D02*
Y964D01*
X977*
X971Y945D02*
X946D01*
Y927D02*
X977D01*
X952Y307D02*
Y344D01*
X971*
X977Y341*
X980Y338*
X983Y332*
Y319*
X980Y313*
X977Y310*
X971Y307*
X952*
X985Y564D02*
X998D01*
X991D02*
Y602D01*
X985D02*
X998D01*
X991Y917D02*
Y954D01*
X1023*
X1016Y936D02*
X991D01*
Y917D02*
X1023D01*
X991Y940D02*
Y978D01*
X1023*
X1016Y959D02*
X991D01*
Y940D02*
X1023D01*
X1001Y354D02*
Y391D01*
X1033*
X1026Y373D02*
X1001D01*
Y354D02*
X1033D01*
X1017Y438D02*
X1029D01*
X1023D02*
Y476D01*
X1017D02*
X1029D01*
X1017Y533D02*
X1029D01*
X1023D02*
Y570D01*
X1017D02*
X1029D01*
X1017Y659D02*
X1029D01*
X1023D02*
Y696D01*
X1017D02*
X1029D01*
X1048Y407D02*
X1061D01*
X1054D02*
Y444D01*
X1048D02*
X1061D01*
X1054Y645D02*
Y683D01*
X1073*
X1079Y680*
X1083Y676*
X1086Y670*
Y658*
X1083Y651*
X1079Y648*
X1073Y645*
X1054*
X1072Y696D02*
Y734D01*
X1091*
X1097Y731*
X1100Y728*
X1103Y721*
Y709*
X1100Y703*
X1097Y699*
X1091Y696*
X1072*
Y868D02*
Y905D01*
X1103*
X1097Y886D02*
X1072D01*
Y868D02*
X1103D01*
X1091Y423D02*
X1104D01*
X1098D02*
Y460D01*
X1091D02*
X1104D01*
X1119Y521D02*
X1131D01*
X1125D02*
Y559D01*
X1119D02*
X1131D01*
X1139Y318D02*
Y356D01*
X1170*
X1164Y337D02*
X1139D01*
Y318D02*
X1170D01*
X1139Y346D02*
Y383D01*
X1170*
X1164Y365D02*
X1139D01*
Y346D02*
X1170D01*
X1159Y753D02*
Y791D01*
X1190*
X1184Y772D02*
X1159D01*
Y753D02*
X1190D01*
X1165Y814D02*
Y852D01*
X1196*
X1190Y833D02*
X1165D01*
Y814D02*
X1196D01*
X1173Y704D02*
Y742D01*
X1191*
X1198Y739*
X1201Y735*
X1204Y729*
Y717*
X1201Y710*
X1198Y707*
X1191Y704*
X1173*
X1190Y669D02*
X1202D01*
X1196D02*
Y706D01*
X1190D02*
X1202D01*
X1200Y923D02*
Y960D01*
X1231*
X1225Y941D02*
X1200D01*
Y923D02*
X1231D01*
X1212Y588D02*
Y626D01*
X1243*
X1237Y607D02*
X1212D01*
Y588D02*
X1243D01*
X1226Y923D02*
Y960D01*
X1257*
X1251Y941D02*
X1226D01*
Y923D02*
X1257D01*
X1253Y419D02*
X1265D01*
X1259D02*
Y456D01*
X1253D02*
X1265D01*
X1245Y314D02*
Y352D01*
X1277*
X1270Y333D02*
X1245D01*
Y314D02*
X1277D01*
X1253Y379D02*
Y417D01*
X1272*
X1278Y414*
X1281Y411*
X1285Y404*
Y392*
X1281Y386*
X1278Y383*
X1272Y379*
X1253*
X1257Y643D02*
Y681D01*
X1288*
X1282Y662D02*
X1257D01*
Y643D02*
X1288D01*
X1267Y665D02*
Y702D01*
X1298*
X1292Y684D02*
X1267D01*
Y665D02*
X1298D01*
X1269Y620D02*
Y657D01*
X1300*
X1294Y638D02*
X1269D01*
Y620D02*
X1300D01*
X1336Y665D02*
Y702D01*
X1367*
X1361Y684D02*
X1336D01*
Y665D02*
X1367D01*
X1362Y620D02*
Y657D01*
X1393*
X1387Y638D02*
X1362D01*
Y620D02*
X1393D01*
X1362Y643D02*
Y681D01*
X1393*
X1387Y662D02*
X1362D01*
Y643D02*
X1393D01*
X1425Y334D02*
Y372D01*
X1456*
X1450Y353D02*
X1425D01*
Y334D02*
X1456D01*
X1425Y373D02*
Y411D01*
X1456*
X1450Y392D02*
X1425D01*
Y373D02*
X1456D01*
X1428Y629D02*
Y667D01*
X1460*
X1453Y648D02*
X1428D01*
Y629D02*
X1460D01*
X1430Y655D02*
Y692D01*
X1462*
X1455Y674D02*
X1430D01*
Y655D02*
X1462D01*
X1452Y350D02*
Y387D01*
X1483*
X1477Y369D02*
X1452D01*
Y350D02*
X1483D01*
X1454Y318D02*
Y356D01*
X1485*
X1479Y337D02*
X1454D01*
Y318D02*
X1485D01*
X1490Y850D02*
Y887D01*
X1521*
X1515Y869D02*
X1490D01*
Y850D02*
X1521D01*
X1491Y724D02*
Y761D01*
X1510*
X1516Y758*
X1520Y755*
X1523Y749*
Y736*
X1520Y730*
X1516Y727*
X1510Y724*
X1491*
X1503Y746D02*
Y783D01*
X1522*
X1528Y780*
X1531Y777*
X1535Y771*
Y758*
X1531Y752*
X1528Y749*
X1522Y746*
X1503*
X1545Y879D02*
Y917D01*
X1576*
X1570Y898D02*
X1545D01*
Y879D02*
X1576D01*
X1545Y901D02*
Y939D01*
X1576*
X1570Y920D02*
X1545D01*
Y901D02*
X1576D01*
X1602Y391D02*
Y429D01*
X1633*
X1627Y410D02*
X1602D01*
Y391D02*
X1633D01*
X1643Y340D02*
Y378D01*
X1674*
X1668Y359D02*
X1643D01*
Y340D02*
X1674D01*
X1749Y539D02*
Y576D01*
X1781*
X1774Y558D02*
X1749D01*
Y539D02*
X1781D01*
X1751Y467D02*
Y504D01*
X1783*
X1776Y486D02*
X1751D01*
Y467D02*
X1783D01*
X1791Y894D02*
Y932D01*
X1822*
X1816Y913D02*
X1791D01*
Y894D02*
X1822D01*
X1804Y505D02*
Y543D01*
X1836*
X1829Y524D02*
X1804D01*
Y505D02*
X1836D01*
X1858Y418D02*
X1861Y415D01*
X1867Y412*
X1873Y415*
X1876Y418*
Y449*
X1883*
X1876D02*
X1864D01*
X1858Y543D02*
Y581D01*
Y562D02*
X1867D01*
X1889Y581*
X1867Y562D02*
X1889Y543D01*
X1858Y721D02*
Y759D01*
Y740D02*
X1867D01*
X1889Y759*
X1867Y740D02*
X1889Y721D01*
X1858Y859D02*
X1861Y856D01*
X1867Y853*
X1873Y856*
X1876Y859*
Y890*
X1883*
X1876D02*
X1864D01*
D02*
D109*
X303Y369D03*
Y419D03*
Y469D03*
Y519D03*
Y569D03*
Y619D03*
Y669D03*
X328Y277D03*
X330Y832D03*
Y857D03*
X342Y338D03*
X354Y479D03*
X366Y436D03*
X439Y812D03*
X498Y438D03*
X527Y834D03*
X531Y865D03*
X549Y294D03*
X555Y411D03*
X563Y765D03*
X604Y779D03*
X624Y474D03*
Y505D03*
Y568D03*
Y663D03*
X626Y633D03*
X640Y779D03*
X687Y442D03*
Y505D03*
Y568D03*
Y663D03*
X714Y779D03*
X718Y537D03*
Y568D03*
Y600D03*
X748Y779D03*
X750Y505D03*
Y568D03*
X781Y505D03*
Y568D03*
Y663D03*
X785Y249D03*
X813Y505D03*
Y537D03*
X836Y796D03*
X844Y411D03*
Y631D03*
X846Y867D03*
X852Y247D03*
X876Y505D03*
X891Y857D03*
Y881D03*
X901Y294D03*
X907Y379D03*
Y474D03*
Y600D03*
X939Y348D03*
X954Y586D03*
X972Y637D03*
Y808D03*
X982Y363D03*
X1010Y462D03*
X1039Y259D03*
Y287D03*
X1059Y694D03*
X1065Y755D03*
X1073Y645D03*
X1080Y609D03*
X1100Y863D03*
X1112Y529D03*
X1126Y863D03*
X1143Y359D03*
X1145Y255D03*
X1153Y320D03*
X1157Y584D03*
X1167Y605D03*
X1169Y560D03*
X1236Y605D03*
X1262Y560D03*
Y584D03*
X1325Y275D03*
Y314D03*
X1328Y570D03*
X1330Y596D03*
X1352Y290D03*
X1354Y259D03*
X1390Y790D03*
X1391Y665D03*
X1403Y686D03*
X1445Y820D03*
Y842D03*
X1502Y332D03*
X1543Y281D03*
X1649Y479D03*
X1651Y408D03*
X1691Y835D03*
X1704Y446D03*
X1758Y353D03*
Y484D03*
Y662D03*
Y793D03*
X0Y0D02*
M02*
