%FSLAX23Y23*%
%MOIN*%
G04 EasyPC Gerber Version 17.0 Build 3379 *
%ADD74R,0.02126X0.03150*%
%ADD29R,0.02559X0.08465*%
%ADD27R,0.02953X0.06299*%
%ADD24R,0.03346X0.06299*%
%ADD72R,0.04724X0.05118*%
%ADD25R,0.06575X0.07087*%
%ADD71C,0.00394*%
%ADD81C,0.00500*%
%ADD80C,0.00590*%
%ADD79C,0.01200*%
%ADD78C,0.01600*%
%ADD76C,0.01772*%
%ADD77C,0.02400*%
%ADD22C,0.03937*%
%ADD75C,0.03937*%
%ADD21C,0.05918*%
%ADD20C,0.13055*%
%ADD23R,0.06693X0.03937*%
%ADD26R,0.08071X0.05315*%
%ADD73R,0.09449X0.06693*%
%ADD28R,0.07480X0.07283*%
X0Y0D02*
D02*
D71*
X362Y771D02*
X338D01*
X362Y751*
X338*
X362Y731D02*
X346D01*
X340D02*
X346Y704*
Y696D01*
X342Y700D02*
X360D01*
X362Y698*
Y696*
X360Y694*
X362Y676D02*
X346D01*
X352D02*
X348Y674D01*
X346Y670*
Y666*
X348Y663*
X356Y645D02*
X360Y643D01*
X362Y639*
Y635*
X360Y631*
X356Y629*
X352*
X348Y631*
X346Y635*
Y639*
X348Y643*
X352Y645*
X356*
X362Y613D02*
X338D01*
X354D02*
Y607D01*
X346Y598*
X354Y607D02*
X362Y598D01*
X360Y566D02*
X362Y568D01*
Y572*
Y576*
X360Y580*
X356Y582*
X350*
X348Y580*
X346Y576*
Y572*
X348Y568*
X350Y566*
X352*
X354Y568*
X356Y572*
Y576*
X354Y580*
X352Y582*
X346Y550D02*
X354Y548D01*
X358Y544*
Y540*
X354Y537*
X346Y535*
X354Y537D02*
X362Y539D01*
X366Y540*
X368Y544*
X366Y548*
X394Y771D02*
X398Y769D01*
X400Y765*
Y757*
X398Y753*
X394Y751*
X390Y753*
X388Y757*
Y765*
X386Y769*
X382Y771*
X378Y769*
X376Y765*
Y757*
X378Y753*
X382Y751*
X384Y735D02*
Y728D01*
X380Y731D02*
X398D01*
X400Y729*
Y728*
X398Y726*
X394Y708D02*
X398Y706D01*
X400Y702*
Y698*
X398Y694*
X394Y692*
X390*
X386Y694*
X384Y698*
Y702*
X386Y706*
X390Y708*
X394*
X400Y676D02*
X384D01*
X390D02*
X386Y674D01*
X384Y670*
Y666*
X386Y663*
Y645D02*
X384Y641D01*
Y635*
X386Y631*
X390Y629*
X396*
X398Y631*
X400Y635*
Y639*
X398Y643*
X396Y645*
X394*
X392Y643*
X390Y639*
Y635*
X392Y631*
X394Y629*
X396D02*
X400D01*
X390Y598D02*
X386Y600D01*
X384Y603*
Y607*
X386Y611*
X390Y613*
X392*
X396Y611*
X398Y607*
Y603*
X396Y600*
X392Y598*
X384D02*
X400D01*
X404Y600*
X406Y603*
Y609*
X404Y613*
X398Y566D02*
X400Y568D01*
Y572*
Y576*
X398Y580*
X394Y582*
X388*
X386Y580*
X384Y576*
Y572*
X386Y568*
X388Y566*
X390*
X392Y568*
X394Y572*
Y576*
X392Y580*
X390Y582*
X438Y767D02*
Y759D01*
Y763D02*
X414D01*
X418Y767*
X438Y737D02*
X436Y735D01*
X434Y737*
X436Y739*
X438Y737*
X436Y706D02*
X438Y702D01*
Y698*
X436Y694*
X432Y692*
X420*
X416Y694*
X414Y698*
Y702*
X416Y706*
X420Y708*
X432*
X436Y706*
X416Y694*
D02*
D20*
X1758Y353D03*
Y793D03*
D02*
D21*
Y484D03*
Y662D03*
D02*
D22*
X307Y767D03*
X1665Y290D03*
D02*
D23*
X1591Y334D03*
Y480D03*
D02*
D24*
X1219Y733D03*
X1262D03*
X1305D03*
X1348D03*
X1392D03*
X1435D03*
X1478D03*
D02*
D25*
X1119Y708D03*
D02*
D26*
X1585Y718D03*
D02*
D27*
X1177Y733D03*
D02*
D28*
X1209Y286D03*
X1444D03*
D02*
D29*
X615Y305D03*
X665D03*
X715D03*
X765D03*
X815D03*
X865D03*
D02*
D72*
X448Y408D03*
Y487D03*
X970Y408D03*
X971Y487D03*
D02*
D73*
X450Y864D03*
X971Y864D03*
D02*
D74*
X609Y840D03*
X809D03*
D02*
D75*
X303Y369D03*
Y419D03*
Y469D03*
Y519D03*
Y569D03*
Y619D03*
Y669D03*
D02*
D76*
X624Y474D03*
Y505D03*
Y568D03*
Y663D03*
X626Y633D03*
X687Y442D03*
Y505D03*
Y568D03*
Y663D03*
X718Y568D03*
X750Y505D03*
Y568D03*
X781Y505D03*
Y568D03*
Y663D03*
X813Y505D03*
X844Y411D03*
Y631D03*
X876Y505D03*
X907Y379D03*
Y474D03*
Y600D03*
X939Y348D03*
X982Y363D03*
X1010Y462D03*
X1080Y609D03*
X1143Y359D03*
D02*
D77*
X328Y277D03*
X330Y832D03*
Y857D03*
X342Y338D03*
X354Y479D03*
X366Y436D03*
X439Y812D03*
X498Y438D03*
X527Y834D03*
X531Y865D03*
X549Y294D03*
X563Y765D03*
X604Y779D03*
X640D03*
X714D03*
X748D03*
X836Y796D03*
X846Y867D03*
X891Y857D03*
Y881D03*
X901Y294D03*
X972Y808D03*
X1039Y259D03*
Y287D03*
X1059Y694D03*
X1065Y755D03*
X1100Y863D03*
X1112Y529D03*
X1126Y863D03*
X1145Y255D03*
X1157Y584D03*
X1167Y605D03*
X1169Y560D03*
X1236Y605D03*
X1262Y560D03*
Y584D03*
X1325Y275D03*
Y314D03*
X1328Y570D03*
X1330Y596D03*
X1352Y290D03*
X1354Y259D03*
X1390Y790D03*
X1445Y820D03*
Y842D03*
X1502Y332D03*
X1543Y281D03*
X1649Y479D03*
X1651Y408D03*
X1691Y835D03*
X1704Y446D03*
D02*
D78*
X555Y411D03*
X718Y537D03*
Y600D03*
X785Y249D03*
X813Y537D03*
X852Y247D03*
X954Y586D03*
X972Y637D03*
X1073Y645D03*
X1153Y320D03*
X1391Y665D03*
X1403Y686D03*
D02*
D79*
X815Y305D02*
X817D01*
Y281*
X785Y250*
Y249*
X844Y411D02*
Y325D01*
X865Y305*
X1100Y863D02*
X1126D01*
X1216*
X1264Y816*
Y755*
X1262Y753*
X1264*
Y733*
X1262*
X1348D02*
X1350D01*
Y775*
X1366Y790*
X1390*
X1651Y408D02*
X1758Y353D01*
Y793D02*
X1691Y835D01*
D02*
D80*
X624Y474D02*
Y313D01*
X615Y305*
X718Y537D02*
Y305D01*
X715*
X718Y600D02*
X679D01*
X665Y586*
Y393*
X665Y393*
Y305*
X954Y586D02*
Y657D01*
X960Y663*
X1199*
X1218Y682*
Y737*
X1219Y733*
X972Y637D02*
X974D01*
Y633*
X980Y627*
X1321*
X1390Y696*
Y751*
X1392Y733*
X982Y363D02*
X1140D01*
X1143Y359*
X1073Y645D02*
X1267D01*
X1305Y682*
Y733*
X1305*
X1080Y609D02*
X1075D01*
X998Y533*
X921*
X907Y519*
Y474*
X1177Y733D02*
X1177D01*
Y787*
X1167Y796*
X1065*
X1048Y773*
X837*
X813Y749*
Y537*
X1391Y665D02*
X1439D01*
X1478Y704*
Y706*
X1478Y763*
Y733*
X1403Y686D02*
X1419D01*
X1435Y702*
Y762*
X1435Y733*
D02*
D81*
X1844Y228D02*
X270D01*
Y918*
X1844*
Y228*
X0Y0D02*
M02*
