%FSLAX25Y25*%
%MOIN*%
G04 EasyPC Gerber Version 18.0.8 Build 3632 *
%ADD135R,0.02126X0.03150*%
%ADD132R,0.02559X0.08465*%
%ADD130R,0.02953X0.06299*%
%ADD127R,0.03346X0.06299*%
%ADD133R,0.04724X0.05118*%
%ADD128R,0.06575X0.07087*%
%ADD125C,0.00394*%
%ADD10C,0.00500*%
%ADD77C,0.00590*%
%ADD126R,0.06693X0.03937*%
%ADD76C,0.01200*%
%ADD75C,0.01600*%
%ADD73C,0.01772*%
%ADD74C,0.02400*%
%ADD79C,0.03740*%
%ADD29C,0.03937*%
%ADD26C,0.05918*%
%ADD25C,0.13055*%
%ADD129R,0.08071X0.05315*%
%ADD134R,0.09449X0.06693*%
%ADD131R,0.07480X0.07283*%
X0Y0D02*
D02*
D10*
X166667Y14305D02*
X38814D01*
Y18242*
X27003*
Y79462*
X38814*
Y83399*
X166667*
Y79462*
X184423*
Y18242*
X166667*
Y14305*
D02*
D25*
X175761Y26805D03*
Y70899D03*
D02*
D26*
Y39946D03*
Y57757D03*
D02*
D29*
X30683Y74874D03*
X30844Y44912D03*
X165984Y26960D03*
D02*
D73*
X62376Y38911D03*
Y42061D03*
Y48360D03*
Y57809D03*
X62572Y54856D03*
X68675Y35761D03*
Y42061D03*
Y48360D03*
Y57809D03*
X71824Y48360D03*
X74974Y42061D03*
Y48360D03*
X78124Y42061D03*
Y48360D03*
Y57809D03*
X81273Y42061D03*
X84423Y32612D03*
Y54659D03*
X87572Y42061D03*
X90722Y29462D03*
Y38911D03*
Y51509D03*
X93872Y26313D03*
X98202Y27887D03*
X100958Y37730D03*
X108045Y52494D03*
X114344Y27494D03*
D02*
D74*
X34226Y25328D03*
X35407Y39502D03*
X36574Y73574D03*
X36588Y35171D03*
X36653Y76488D03*
X39576Y20730D03*
X49777Y35368D03*
X51574Y73023D03*
Y75582D03*
X53124Y78084D03*
X54895Y21409D03*
X56273Y68045D03*
X62598Y69423D03*
X65748D03*
X70078D03*
X72834D03*
X83635Y71194D03*
X84620Y78281D03*
X89960Y76370D03*
Y79126D03*
X92381Y18506D03*
X97218Y72376D03*
X105708Y77887D03*
X105880Y60958D03*
X106470Y67061D03*
X108267Y77887D03*
X109448Y17708D03*
Y20661D03*
X111194Y44423D03*
X114541Y17061D03*
X115722Y49935D03*
X116706Y52100D03*
X116903Y47572D03*
X123596Y52100D03*
X126155Y47572D03*
Y49935D03*
X127362Y17905D03*
Y20661D03*
X132848Y48557D03*
X133045Y51116D03*
X136151Y23112D03*
X138848Y23210D03*
X138950Y70604D03*
X149212Y72433D03*
Y75189D03*
X150787Y27944D03*
X156968Y19254D03*
X164935Y39502D03*
X165131Y32317D03*
X169069Y75033D03*
X170446Y36155D03*
D02*
D75*
X55486Y32612D03*
X71824Y45210D03*
Y51509D03*
X78517Y16470D03*
X81273Y45210D03*
X84842Y16273D03*
X95446Y50131D03*
X97218Y55250D03*
X107257Y56037D03*
X115328Y23557D03*
X139147Y58006D03*
X140328Y60171D03*
D02*
D76*
X81506Y22020D02*
X81667D01*
Y19656*
X78517Y16506*
Y16470*
X84423Y32612D02*
Y24103D01*
X86506Y22020*
X105708Y77887D02*
X108267D01*
X121628*
X126352Y73163*
Y67061*
X126155Y66864*
X126352*
Y64815*
X126187*
X134848D02*
X135013D01*
Y69029*
X136588Y70604*
X138950*
X165131Y32317D02*
X175761Y26805D01*
Y70899D02*
X169069Y75033D01*
D02*
D77*
X62376Y38911D02*
Y22890D01*
X61506Y22020*
X71824Y45210D02*
Y22020D01*
X71506*
X71824Y51509D02*
X67887D01*
X66509Y50131*
Y30882*
X66506Y30878*
Y22020*
X95446Y50131D02*
Y57218D01*
X96037Y57809*
X119856*
X121824Y59777*
Y65289*
X121856Y64815*
X97218Y55250D02*
X97415D01*
Y54856*
X98006Y54265*
X132061*
X138950Y61155*
Y66667*
X139179Y64815*
X98202Y27887D02*
X113950D01*
X114344Y27494*
X107257Y56037D02*
X126746D01*
X130502Y59793*
Y64815*
X130518*
X108045Y52494D02*
X107454D01*
X99777Y44817*
X92100*
X90722Y43439*
Y38911*
X117722Y64815D02*
X117691D01*
Y70210*
X116706Y71194*
X106470*
X104783Y68832*
X83689*
X81273Y66417*
Y45210*
X139147Y58006D02*
X143872D01*
X147809Y61943*
Y62139*
X147841Y67816*
Y64815*
X140328Y60171D02*
X141903D01*
X143478Y61746*
Y67800*
X143510Y64815*
D02*
D79*
X163324Y19321D03*
Y78376D03*
D02*
D125*
X30443Y71212D02*
X28080D01*
X30443Y69244*
X28080*
X30443Y67275D02*
X28868D01*
X28277D02*
X28868Y64519*
Y63732D01*
X28474Y64126D02*
X30246D01*
X30443Y63929*
Y63732*
X30246Y63535*
X30443Y61763D02*
X28868D01*
X29458D02*
X29065Y61567D01*
X28868Y61173*
Y60779*
X29065Y60385*
X29852Y58614D02*
X30246Y58417D01*
X30443Y58023*
Y57630*
X30246Y57236*
X29852Y57039*
X29458*
X29065Y57236*
X28868Y57630*
Y58023*
X29065Y58417*
X29458Y58614*
X29852*
X30443Y55464D02*
X28080D01*
X29655D02*
Y54874D01*
X28868Y53889*
X29655Y54874D02*
X30443Y53889D01*
X30246Y50740D02*
X30443Y50937D01*
Y51330*
Y51724*
X30246Y52118*
X29852Y52315*
X29261*
X29065Y52118*
X28868Y51724*
Y51330*
X29065Y50937*
X29261Y50740*
X29458*
X29655Y50937*
X29852Y51330*
Y51724*
X29655Y52118*
X29458Y52315*
X28868Y49165D02*
X29655Y48968D01*
X30049Y48574*
Y48181*
X29655Y47787*
X28868Y47590*
X29655Y47787D02*
X30443Y47984D01*
X30836Y48181*
X31033Y48574*
X30836Y48968*
X33631Y71212D02*
X34025Y71015D01*
X34222Y70622*
Y69834*
X34025Y69441*
X33631Y69244*
X33238Y69441*
X33041Y69834*
Y70622*
X32844Y71015*
X32450Y71212*
X32057Y71015*
X31860Y70622*
Y69834*
X32057Y69441*
X32450Y69244*
X32647Y67669D02*
Y66881D01*
X32254Y67275D02*
X34025D01*
X34222Y67078*
Y66881*
X34025Y66685*
X33631Y64913D02*
X34025Y64716D01*
X34222Y64322*
Y63929*
X34025Y63535*
X33631Y63338*
X33238*
X32844Y63535*
X32647Y63929*
Y64322*
X32844Y64716*
X33238Y64913*
X33631*
X34222Y61763D02*
X32647D01*
X33238D02*
X32844Y61567D01*
X32647Y61173*
Y60779*
X32844Y60385*
Y58614D02*
X32647Y58220D01*
Y57630*
X32844Y57236*
X33238Y57039*
X33828*
X34025Y57236*
X34222Y57630*
Y58023*
X34025Y58417*
X33828Y58614*
X33631*
X33435Y58417*
X33238Y58023*
Y57630*
X33435Y57236*
X33631Y57039*
X33828D02*
X34222D01*
X33238Y53889D02*
X32844Y54086D01*
X32647Y54480*
Y54874*
X32844Y55267*
X33238Y55464*
X33435*
X33828Y55267*
X34025Y54874*
Y54480*
X33828Y54086*
X33435Y53889*
X32647D02*
X34222D01*
X34616Y54086*
X34813Y54480*
Y55070*
X34616Y55464*
X34025Y50740D02*
X34222Y50937D01*
Y51330*
Y51724*
X34025Y52118*
X33631Y52315*
X33041*
X32844Y52118*
X32647Y51724*
Y51330*
X32844Y50937*
X33041Y50740*
X33238*
X33435Y50937*
X33631Y51330*
Y51724*
X33435Y52118*
X33238Y52315*
X38002Y70819D02*
Y70031D01*
Y70425D02*
X35639D01*
X36033Y70819*
X38002Y67866D02*
X37805Y67669D01*
X37608Y67866*
X37805Y68063*
X38002Y67866*
X37805Y64716D02*
X38002Y64322D01*
Y63929*
X37805Y63535*
X37411Y63338*
X37017Y63535*
X36820Y63929*
Y64322*
Y63929D02*
X36624Y63535D01*
X36230Y63338*
X35836Y63535*
X35639Y63929*
Y64322*
X35836Y64716*
D02*
D126*
X159140Y24996D03*
Y39540D03*
D02*
D127*
X121856Y64815D03*
X126187D03*
X130518D03*
X134848D03*
X139179D03*
X143510D03*
X147841D03*
D02*
D128*
X111935Y62404D03*
D02*
D129*
X158510Y63319D03*
D02*
D130*
X117722Y64815D03*
D02*
D131*
X120872Y20150D03*
X144376D03*
D02*
D132*
X61506Y22020D03*
X66506D03*
X71506D03*
X76506D03*
X81506D03*
X86506D03*
D02*
D133*
X44774Y32375D03*
Y40249D03*
X96978Y32375D03*
X97057Y40249D03*
D02*
D134*
X44970Y77926D03*
X97057Y77965D03*
D02*
D135*
X60939Y75603D03*
X80939D03*
X0Y0D02*
M02*
