%FSLAX25Y25*%
%MOIN*%
G04 EasyPC Gerber Version 18.0.8 Build 3632 *
%ADD112R,0.02962X0.05324*%
%ADD104R,0.04537X0.04931*%
%ADD99R,0.04734X0.04852*%
%ADD96R,0.04931X0.04537*%
%ADD102R,0.05400X0.09400*%
%ADD97R,0.05718X0.06506*%
%ADD109R,0.06506X0.08080*%
%ADD106R,0.09261X0.05324*%
%ADD103R,0.14773X0.09261*%
%ADD10C,0.00500*%
%ADD101C,0.01978*%
%ADD111C,0.04537*%
%ADD108C,0.06518*%
%ADD105R,0.04931X0.04537*%
%ADD98R,0.04852X0.04734*%
%ADD100R,0.04537X0.04931*%
%ADD107C,0.13655*%
%ADD110R,0.07687X0.06112*%
X0Y0D02*
D02*
D10*
X166667Y14305D02*
X38814D01*
Y18242*
X27003*
Y79462*
X38814*
Y83399*
X166667*
Y79462*
X184423*
Y18242*
X166667*
Y14305*
D02*
D96*
X43021Y20395D03*
X49714D03*
X99383Y19029D03*
X103911Y37927D03*
X106076Y19029D03*
X110604Y37927D03*
X152952Y74007D03*
X159645D03*
D02*
D97*
X40354Y75385D03*
X47834D03*
X64147Y74147D03*
X71628D03*
X94291Y77887D03*
X101771D03*
X131299Y19480D03*
X138779D03*
X150787Y23417D03*
X158267D03*
D02*
D98*
X56273Y71293D03*
Y78183D03*
X80486Y71293D03*
Y78183D03*
X101352Y59482D03*
Y66372D03*
X111194Y47474D03*
Y54364D03*
D02*
D99*
X39836Y34383D03*
X46726D03*
X54994Y18439D03*
X61883D03*
X82356D03*
X89246D03*
X114639Y20013D03*
X121529D03*
D02*
D100*
X103911Y45998D03*
Y52691D03*
D02*
D101*
X57651Y27887D03*
Y31037D03*
Y34187D03*
Y37336D03*
Y40486D03*
Y43635D03*
Y46785D03*
Y49935D03*
Y53084D03*
Y56234D03*
Y59383D03*
Y62533D03*
X60801Y27887D03*
Y31037D03*
Y34187D03*
Y37336D03*
Y40486D03*
Y43635D03*
Y46785D03*
Y49935D03*
Y53084D03*
Y56234D03*
Y59383D03*
Y62533D03*
X63950Y27887D03*
Y31037D03*
Y34187D03*
Y37336D03*
Y40486D03*
Y43635D03*
Y46785D03*
Y49935D03*
Y53084D03*
Y56234D03*
Y59383D03*
Y62533D03*
X67100Y27887D03*
Y31037D03*
Y34187D03*
Y37336D03*
Y40486D03*
Y43635D03*
Y46785D03*
Y49935D03*
Y53084D03*
Y56234D03*
Y59383D03*
Y62533D03*
X70250Y27887D03*
Y31037D03*
Y34187D03*
Y37336D03*
Y40486D03*
Y43635D03*
Y46785D03*
Y49935D03*
Y53084D03*
Y56234D03*
Y59383D03*
Y62533D03*
X73399Y27887D03*
Y31037D03*
Y34187D03*
Y37336D03*
Y40486D03*
Y43635D03*
Y46785D03*
Y49935D03*
Y53084D03*
Y56234D03*
Y59383D03*
Y62533D03*
X76549Y27887D03*
Y31037D03*
Y34187D03*
Y37336D03*
Y40486D03*
Y43635D03*
Y46785D03*
Y49935D03*
Y53084D03*
Y56234D03*
Y59383D03*
Y62533D03*
X79698Y27887D03*
Y31037D03*
Y34187D03*
Y37336D03*
Y40486D03*
Y43635D03*
Y46785D03*
Y49935D03*
Y53084D03*
Y56234D03*
Y59383D03*
Y62533D03*
X82848Y27887D03*
Y31037D03*
Y34187D03*
Y37336D03*
Y40486D03*
Y43635D03*
Y46785D03*
Y49935D03*
Y53084D03*
Y56234D03*
Y59383D03*
Y62533D03*
X85998Y27887D03*
Y31037D03*
Y34187D03*
Y37336D03*
Y40486D03*
Y43635D03*
Y46785D03*
Y49935D03*
Y53084D03*
Y56234D03*
Y59383D03*
Y62533D03*
X89147Y27887D03*
Y31037D03*
Y34187D03*
Y37336D03*
Y40486D03*
Y43635D03*
Y46785D03*
Y49935D03*
Y53084D03*
Y56234D03*
Y59383D03*
Y62533D03*
X92297Y27887D03*
Y31037D03*
Y34187D03*
Y37336D03*
Y40486D03*
Y43635D03*
Y46785D03*
Y49935D03*
Y53084D03*
Y56234D03*
Y59383D03*
Y62533D03*
D02*
D102*
X120402Y51711D03*
X129502D03*
X138602D03*
D02*
D103*
X129502Y76112D03*
D02*
D104*
X39344Y25328D03*
X46037D03*
X67297Y20013D03*
X73990D03*
X87572Y71391D03*
X94265D03*
X102730Y25328D03*
X103124Y31037D03*
X109423Y25328D03*
X109817Y31037D03*
D02*
D105*
X39935Y62730D03*
Y69423D03*
X48006Y62730D03*
Y69423D03*
X111194Y59777D03*
Y66470D03*
D02*
D106*
X165919Y35072D03*
Y44915D03*
Y52789D03*
Y62631D03*
D02*
D107*
X175761Y26805D03*
Y70899D03*
D02*
D108*
Y39946D03*
Y57757D03*
D02*
D109*
X40106Y42077D03*
Y54705D03*
X47383Y42077D03*
Y54705D03*
D02*
D110*
X119856Y32809D03*
Y42257D03*
X137179Y32809D03*
Y42257D03*
D02*
D111*
X30683Y74992D03*
X166023Y26960D03*
D02*
D112*
X147809Y39108D03*
Y48163D03*
X151549Y39108D03*
Y48163D03*
X155289Y39108D03*
Y48163D03*
X0Y0D02*
M02*
