%FSLAX25Y25*%
%MOIN*%
G04 EasyPC Gerber Version 18.0.8 Build 3632 *
%ADD15C,0.00100*%
%ADD13C,0.00197*%
%ADD12C,0.00315*%
%ADD11C,0.00400*%
%ADD10C,0.00500*%
%ADD14C,0.00800*%
X0Y0D02*
D02*
D10*
X36096Y37336D02*
Y59383D01*
X51191*
Y37336*
X45151*
Y37350*
X42198*
Y37336*
X36096*
X52927Y67257D02*
X97021D01*
Y23163*
X52927*
Y67257*
X115328Y45998D02*
X141706D01*
Y29069*
X115328*
Y36057*
X116805*
Y39009*
X115328*
Y45998*
X144659Y52494D02*
X158439D01*
Y34777*
X144659*
Y43143*
X145151*
Y44128*
X144659*
Y52494*
X146982Y35604D02*
G75*
G03X148635I827D01*
G01*
G75*
G03X146982I-827*
G01*
G36*
G75*
G03X148635I827*
G01*
G75*
G03X146982I-827*
G01*
G37*
X166667Y14305D02*
X38814D01*
Y18242*
X27003*
Y79462*
X38814*
Y83399*
X166667*
Y79462*
X184423*
Y18242*
X166667*
Y14305*
X171824Y25230D02*
Y72474D01*
X244659*
Y25230*
X171824*
D02*
D11*
X54108Y23950D02*
X51155D01*
X54108Y24738D02*
Y21982D01*
Y66667D02*
X51549D01*
X95840Y23950D02*
X98793D01*
X95840Y66667D02*
X98793D01*
X96234Y24344D02*
Y20998D01*
Y66076D02*
Y69226D01*
X199383Y43884D02*
X202509Y47634D01*
X199383D02*
X202509Y43884D01*
X205009D02*
X206259D01*
X205633D02*
Y47634D01*
X205009Y47009*
D02*
D12*
X91706Y63690D02*
X92322Y65166D01*
X92937Y63690*
X91952Y64305D02*
X92691D01*
X93921Y63690D02*
X94413D01*
X94167D02*
Y65166D01*
X93921Y64920*
D02*
D13*
X30880Y24541D02*
X30683Y24344D01*
X30289Y24147*
X29698*
X29305Y24344*
X29108Y24541*
X28911Y24935*
Y25722*
X29108Y26116*
X29305Y26313*
X29698Y26509*
X30289*
X30683Y26313*
X30880Y26116*
X32454Y24147D02*
X33242D01*
X32848D02*
Y26509D01*
X32454Y26116*
X35210Y24344D02*
X35604Y24147D01*
X36194*
X36588Y24344*
X36785Y24738*
Y24935*
X36588Y25328*
X36194Y25525*
X35210*
Y26509*
X36785*
X32155Y19647D02*
X31958Y19450D01*
X31565Y19254*
X30974*
X30580Y19450*
X30383Y19647*
X30187Y20041*
Y20828*
X30383Y21222*
X30580Y21419*
X30974Y21616*
X31565*
X31958Y21419*
X32155Y21222*
X33730Y19254D02*
X34517D01*
X34124D02*
Y21616D01*
X33730Y21222*
X36486Y19844D02*
X36683Y20238D01*
X37076Y20435*
X37470*
X37864Y20238*
X38061Y19844*
X37864Y19450*
X37470Y19254*
X37076*
X36683Y19450*
X36486Y19844*
Y20435*
X36683Y21025*
X37076Y21419*
X37470Y21616*
X33045Y43635D02*
X35407D01*
Y45604*
Y46785D02*
X33045D01*
Y48754*
X34226Y48360D02*
Y46785D01*
X35407D02*
Y48754D01*
Y49935D02*
X33045D01*
Y51116*
X33242Y51509*
X33439Y51706*
X33832Y51903*
X34620*
X35013Y51706*
X35210Y51509*
X35407Y51116*
Y49935*
Y53478D02*
Y54265D01*
Y53872D02*
X33045D01*
X33439Y53478*
X36982Y64305D02*
X34620D01*
Y65683*
X34817Y66076*
X35210Y66273*
X35604Y66076*
X35801Y65683*
Y64305*
Y65683D02*
X36982Y66273D01*
X36391Y67454D02*
X35998Y67651D01*
X35801Y68045*
Y68439*
X35998Y68832*
X36391Y69029*
X36785Y68832*
X36982Y68439*
Y68045*
X36785Y67651*
X36391Y67454*
X35801*
X35210Y67651*
X34817Y68045*
X34620Y68439*
X42165Y79716D02*
X41968Y79519D01*
X41574Y79322*
X40984*
X40590Y79519*
X40393Y79716*
X40196Y80110*
Y80897*
X40393Y81291*
X40590Y81488*
X40984Y81685*
X41574*
X41968Y81488*
X42165Y81291*
X43543Y79519D02*
X43937Y79322D01*
X44330*
X44724Y79519*
X44921Y79913*
X44724Y80307*
X44330Y80504*
X43937*
X44330D02*
X44724Y80700D01*
X44921Y81094*
X44724Y81488*
X44330Y81685*
X43937*
X43543Y81488*
X40590Y75543D02*
X41378D01*
X40984D02*
Y77905D01*
X40590Y77511*
X40722Y29659D02*
Y32021D01*
X42100*
X42494Y31824*
X42691Y31431*
X42494Y31037*
X42100Y30840*
X40722*
X42100D02*
X42691Y29659D01*
X44856D02*
Y32021D01*
X43872Y30446*
X45446*
X45250Y64502D02*
X42887D01*
Y65880*
X43084Y66273*
X43478Y66470*
X43872Y66273*
X44069Y65880*
Y64502*
Y65880D02*
X45250Y66470D01*
X45053Y67651D02*
X45250Y68045D01*
Y68635*
X45053Y69029*
X44659Y69226*
X44462*
X44069Y69029*
X43872Y68635*
Y67651*
X42887*
Y69226*
X54305Y81037D02*
X54108Y80840D01*
X53714Y80643*
X53124*
X52730Y80840*
X52533Y81037*
X52336Y81431*
Y82218*
X52533Y82612*
X52730Y82809*
X53124Y83006*
X53714*
X54108Y82809*
X54305Y82612*
X55880Y80643D02*
X56667D01*
X56273D02*
Y83006D01*
X55880Y82612*
X59620Y80643D02*
Y83006D01*
X58635Y81431*
X60210*
X58031Y21527D02*
X57834Y21330D01*
X57441Y21133*
X56850*
X56456Y21330*
X56259Y21527*
X56063Y21921*
Y22708*
X56259Y23102*
X56456Y23299*
X56850Y23496*
X57441*
X57834Y23299*
X58031Y23102*
X59606Y21133D02*
X60393D01*
X60000D02*
Y23496D01*
X59606Y23102*
X62559Y21330D02*
X62952Y21133D01*
X63346*
X63740Y21330*
X63937Y21724*
X63740Y22118*
X63346Y22315*
X62952*
X63346D02*
X63740Y22511D01*
X63937Y22905*
X63740Y23299*
X63346Y23496*
X62952*
X62559Y23299*
X67441Y78850D02*
X67244Y78653D01*
X66850Y78456*
X66259*
X65866Y78653*
X65669Y78850*
X65472Y79244*
Y80031*
X65669Y80425*
X65866Y80622*
X66259Y80819*
X66850*
X67244Y80622*
X67441Y80425*
X68622Y78653D02*
X69015Y78456D01*
X69606*
X70000Y78653*
X70196Y79047*
Y79244*
X70000Y79637*
X69606Y79834*
X68622*
Y80819*
X70196*
X68084Y14502D02*
Y16864D01*
X69462*
X69856Y16667*
X70053Y16273*
X69856Y15880*
X69462Y15683*
X68084*
X69462D02*
X70053Y14502D01*
X71431Y14698D02*
X71824Y14502D01*
X72218*
X72612Y14698*
X72809Y15092*
X72612Y15486*
X72218Y15683*
X71824*
X72218D02*
X72612Y15880D01*
X72809Y16273*
X72612Y16667*
X72218Y16864*
X71824*
X71431Y16667*
X77927Y81234D02*
X77730Y81037D01*
X77336Y80840*
X76746*
X76352Y81037*
X76155Y81234*
X75958Y81628*
Y82415*
X76155Y82809*
X76352Y83006*
X76746Y83202*
X77336*
X77730Y83006*
X77927Y82809*
X79502Y80840D02*
X80289D01*
X79895D02*
Y83202D01*
X79502Y82809*
X83832Y80840D02*
X82257D01*
X83635Y82218*
X83832Y82612*
X83635Y83006*
X83242Y83202*
X82651*
X82257Y83006*
X82848Y21588D02*
X82651Y21391D01*
X82257Y21194*
X81667*
X81273Y21391*
X81076Y21588*
X80880Y21982*
Y22769*
X81076Y23163*
X81273Y23360*
X81667Y23557*
X82257*
X82651Y23360*
X82848Y23163*
X84423Y21194D02*
X85210D01*
X84817D02*
Y23557D01*
X84423Y23163*
X87572Y21194D02*
X88360D01*
X87966D02*
Y23557D01*
X87572Y23163*
X84423Y74147D02*
Y76509D01*
X85801*
X86194Y76313*
X86391Y75919*
X86194Y75525*
X85801Y75328*
X84423*
X85801D02*
X86391Y74147D01*
X88163D02*
X88557Y74344D01*
X88950Y74738*
X89147Y75328*
Y75919*
X88950Y76313*
X88557Y76509*
X88163*
X87769Y76313*
X87572Y75919*
X87769Y75525*
X88163Y75328*
X88557*
X88950Y75525*
X89147Y75919*
X95446Y65092D02*
Y64305D01*
Y64698D02*
X97809D01*
Y65092D02*
Y64305D01*
X95840Y60565D02*
X95643Y60761D01*
X95446Y61155*
Y61746*
X95643Y62139*
X95840Y62336*
X96234Y62533*
X97021*
X97415Y62336*
X97612Y62139*
X97809Y61746*
Y61155*
X97612Y60761*
X97415Y60565*
X95446Y58990D02*
Y58202D01*
Y58596D02*
X97809D01*
X97415Y58990*
X97716Y81212D02*
X97519Y81015D01*
X97126Y80819*
X96535*
X96141Y81015*
X95944Y81212*
X95748Y81606*
Y82393*
X95944Y82787*
X96141Y82984*
X96535Y83181*
X97126*
X97519Y82984*
X97716Y82787*
X98897Y81409D02*
X99094Y81803D01*
X99488Y82000*
X99881*
X100275Y81803*
X100472Y81409*
X100275Y81015*
X99881Y80819*
X99488*
X99094Y81015*
X98897Y81409*
Y82000*
X99094Y82590*
X99488Y82984*
X99881Y83181*
X100708Y14913D02*
X100511Y14716D01*
X100118Y14519*
X99527*
X99133Y14716*
X98937Y14913*
X98740Y15307*
Y16094*
X98937Y16488*
X99133Y16685*
X99527Y16881*
X100118*
X100511Y16685*
X100708Y16488*
X103464Y14519D02*
X101889D01*
X103267Y15897*
X103464Y16291*
X103267Y16685*
X102874Y16881*
X102283*
X101889Y16685*
X105236Y14716D02*
X105630Y14519D01*
X106023*
X106417Y14716*
X106614Y15110*
Y16291*
X106417Y16685*
X106023Y16881*
X105630*
X105236Y16685*
X105039Y16291*
Y15110*
X105236Y14716*
X106417Y16685*
X100761Y23557D02*
X98399D01*
Y24935*
X98596Y25328*
X98990Y25525*
X99383Y25328*
X99580Y24935*
Y23557*
Y24935D02*
X100761Y25525D01*
Y27100D02*
Y27887D01*
Y27494D02*
X98399D01*
X98793Y27100*
X100958Y29265D02*
X98596D01*
Y30643*
X98793Y31037*
X99187Y31234*
X99580Y31037*
X99777Y30643*
Y29265*
Y30643D02*
X100958Y31234D01*
Y33990D02*
Y32415D01*
X99580Y33793*
X99187Y33990*
X98793Y33793*
X98596Y33399*
Y32809*
X98793Y32415*
X100565Y47179D02*
X100761Y46982D01*
X100958Y46588*
Y45998*
X100761Y45604*
X100565Y45407*
X100171Y45210*
X99383*
X98990Y45407*
X98793Y45604*
X98596Y45998*
Y46588*
X98793Y46982*
X98990Y47179*
X100958Y48754D02*
Y49541D01*
Y49147D02*
X98596D01*
X98990Y48754*
X99777Y52100D02*
Y52494D01*
X99580Y52887*
X99187Y53084*
X98793Y52887*
X98596Y52494*
Y52100*
X98793Y51706*
X99187Y51509*
X99580Y51706*
X99777Y52100*
X99974Y51706*
X100368Y51509*
X100761Y51706*
X100958Y52100*
Y52494*
X100761Y52887*
X100368Y53084*
X99974Y52887*
X99777Y52494*
X105289Y41076D02*
X105092Y40880D01*
X104698Y40683*
X104108*
X103714Y40880*
X103517Y41076*
X103320Y41470*
Y42257*
X103517Y42651*
X103714Y42848*
X104108Y43045*
X104698*
X105092Y42848*
X105289Y42651*
X106864Y40683D02*
X107651D01*
X107257D02*
Y43045D01*
X106864Y42651*
X109620Y40683D02*
X111194Y43045D01*
X109620*
X105880Y62336D02*
X106076Y62139D01*
X106273Y61746*
Y61155*
X106076Y60761*
X105880Y60565*
X105486Y60368*
X104698*
X104305Y60565*
X104108Y60761*
X103911Y61155*
Y61746*
X104108Y62139*
X104305Y62336*
X106273Y64108D02*
X106076Y64502D01*
X105683Y64895*
X105092Y65092*
X104502*
X104108Y64895*
X103911Y64502*
Y64108*
X104108Y63714*
X104502Y63517*
X104895Y63714*
X105092Y64108*
Y64502*
X104895Y64895*
X104502Y65092*
X116313Y15486D02*
X116116Y15289D01*
X115722Y15092*
X115131*
X114738Y15289*
X114541Y15486*
X114344Y15880*
Y16667*
X114541Y17061*
X114738Y17257*
X115131Y17454*
X115722*
X116116Y17257*
X116313Y17061*
X117887Y15092D02*
X118675D01*
X118281D02*
Y17454D01*
X117887Y17061*
X120840Y15289D02*
X121234Y15092D01*
X121628*
X122021Y15289*
X122218Y15683*
Y16864*
X122021Y17257*
X121628Y17454*
X121234*
X120840Y17257*
X120643Y16864*
Y15683*
X120840Y15289*
X122021Y17257*
X116116Y25722D02*
X118084Y28084D01*
X116116D02*
X118084Y25722D01*
X120250D02*
Y28084D01*
X119265D02*
X121234D01*
X122415Y25722D02*
X123399Y28084D01*
X124383Y25722*
X122809Y26706D02*
X123990D01*
X125565Y28084D02*
Y25722D01*
X127533*
X129108D02*
X129895D01*
X129502D02*
Y28084D01*
X129108Y27691*
X115525Y48557D02*
X115722Y48360D01*
X115919Y47966*
Y47376*
X115722Y46982*
X115525Y46785*
X115131Y46588*
X114344*
X113950Y46785*
X113754Y46982*
X113557Y47376*
Y47966*
X113754Y48360*
X113950Y48557*
X115919Y50131D02*
Y50919D01*
Y50525D02*
X113557D01*
X113950Y50131*
X115919Y53478D02*
X115722Y53872D01*
X115328Y54265*
X114738Y54462*
X114147*
X113754Y54265*
X113557Y53872*
Y53478*
X113754Y53084*
X114147Y52887*
X114541Y53084*
X114738Y53478*
Y53872*
X114541Y54265*
X114147Y54462*
X116116Y60958D02*
X113754D01*
Y62336*
X113950Y62730*
X114344Y62927*
X114738Y62730*
X114935Y62336*
Y60958*
Y62336D02*
X116116Y62927D01*
X114935Y64698D02*
Y65092D01*
X114738Y65486*
X114344Y65683*
X113950Y65486*
X113754Y65092*
Y64698*
X113950Y64305*
X114344Y64108*
X114738Y64305*
X114935Y64698*
X115131Y64305*
X115525Y64108*
X115919Y64305*
X116116Y64698*
Y65092*
X115919Y65486*
X115525Y65683*
X115131Y65486*
X114935Y65092*
X143504Y18259D02*
X143307Y18063D01*
X142913Y17866*
X142322*
X141929Y18063*
X141732Y18259*
X141535Y18653*
Y19441*
X141732Y19834*
X141929Y20031*
X142322Y20228*
X142913*
X143307Y20031*
X143504Y19834*
X145669Y17866D02*
Y20228D01*
X144685Y18653*
X146259*
X145840Y59974D02*
Y60761D01*
Y60368D02*
X143478D01*
Y59974D02*
Y60761D01*
X145446Y64502D02*
X145643Y64305D01*
X145840Y63911*
Y63320*
X145643Y62927*
X145446Y62730*
X145053Y62533*
X144265*
X143872Y62730*
X143675Y62927*
X143478Y63320*
Y63911*
X143675Y64305*
X143872Y64502*
X145643Y65880D02*
X145840Y66273D01*
Y66667*
X145643Y67061*
X145250Y67257*
X144856Y67061*
X144659Y66667*
Y66273*
Y66667D02*
X144462Y67061D01*
X144069Y67257*
X143675Y67061*
X143478Y66667*
Y66273*
X143675Y65880*
X147612Y53872D02*
X148399D01*
X148006D02*
Y56234D01*
X147612D02*
X148399D01*
X152139Y54265D02*
X151943Y54069D01*
X151549Y53872*
X150958*
X150565Y54069*
X150368Y54265*
X150171Y54659*
Y55446*
X150368Y55840*
X150565Y56037*
X150958Y56234*
X151549*
X151943Y56037*
X152139Y55840*
X154895Y53872D02*
X153320D01*
X154698Y55250*
X154895Y55643*
X154698Y56037*
X154305Y56234*
X153714*
X153320Y56037*
X153740Y77433D02*
X153543Y77236D01*
X153149Y77039*
X152559*
X152165Y77236*
X151968Y77433*
X151771Y77826*
Y78614*
X151968Y79007*
X152165Y79204*
X152559Y79401*
X153149*
X153543Y79204*
X153740Y79007*
X155315Y77039D02*
X156102D01*
X155708D02*
Y79401D01*
X155315Y79007*
X153779Y16921D02*
X153582Y16724D01*
X153189Y16527*
X152598*
X152204Y16724*
X152007Y16921*
X151811Y17315*
Y18102*
X152007Y18496*
X152204Y18693*
X152598Y18889*
X153189*
X153582Y18693*
X153779Y18496*
X156535Y16527D02*
X154960D01*
X156338Y17905*
X156535Y18299*
X156338Y18693*
X155944Y18889*
X155354*
X154960Y18693*
D02*
D14*
X116602Y70911D02*
X142402D01*
Y56911*
X116602*
Y70911*
D02*
D15*
X40531Y49979D02*
Y50604D01*
Y50291D02*
X38656D01*
X38969Y49979*
X123834Y32382D02*
X124459D01*
X124147D02*
Y34257D01*
X123834Y33944*
X0Y0D02*
M02*
