%FSLAX25Y25*%
%MOIN*%
G04 EasyPC Gerber Version 18.0.8 Build 3632 *
%ADD94R,0.01962X0.04324*%
%ADD88R,0.03537X0.03931*%
%ADD83R,0.03734X0.03852*%
%ADD80R,0.03931X0.03537*%
%ADD86R,0.04400X0.08400*%
%ADD81R,0.04718X0.05506*%
%ADD91R,0.05506X0.07080*%
%ADD90R,0.08261X0.04324*%
%ADD87R,0.13773X0.08261*%
%ADD10C,0.00500*%
%ADD89R,0.03931X0.03537*%
%ADD82R,0.03852X0.03734*%
%ADD84R,0.03537X0.03931*%
%ADD85C,0.00978*%
%ADD93C,0.03537*%
%ADD92R,0.06687X0.05112*%
X0Y0D02*
D02*
D10*
X166667Y14305D02*
X38814D01*
Y18242*
X27003*
Y79462*
X38814*
Y83399*
X166667*
Y79462*
X184423*
Y18242*
X166667*
Y14305*
D02*
D80*
X43021Y20395D03*
X49714D03*
X99383Y19029D03*
X103911Y37927D03*
X106076Y19029D03*
X110604Y37927D03*
X152952Y74007D03*
X159645D03*
D02*
D81*
X40354Y75385D03*
X47834D03*
X64147Y74147D03*
X71628D03*
X94291Y77887D03*
X101771D03*
X131299Y19480D03*
X138779D03*
X150787Y23417D03*
X158267D03*
D02*
D82*
X56273Y71293D03*
Y78183D03*
X80486Y71293D03*
Y78183D03*
X101352Y59482D03*
Y66372D03*
X111194Y47474D03*
Y54364D03*
D02*
D83*
X39836Y34383D03*
X46726D03*
X54994Y18439D03*
X61883D03*
X82356D03*
X89246D03*
X114639Y20013D03*
X121529D03*
D02*
D84*
X103911Y45998D03*
Y52691D03*
D02*
D85*
X57651Y27887D03*
Y31037D03*
Y34187D03*
Y37336D03*
Y40486D03*
Y43635D03*
Y46785D03*
Y49935D03*
Y53084D03*
Y56234D03*
Y59383D03*
Y62533D03*
X60801Y27887D03*
Y31037D03*
Y34187D03*
Y37336D03*
Y40486D03*
Y43635D03*
Y46785D03*
Y49935D03*
Y53084D03*
Y56234D03*
Y59383D03*
Y62533D03*
X63950Y27887D03*
Y31037D03*
Y34187D03*
Y37336D03*
Y40486D03*
Y43635D03*
Y46785D03*
Y49935D03*
Y53084D03*
Y56234D03*
Y59383D03*
Y62533D03*
X67100Y27887D03*
Y31037D03*
Y34187D03*
Y37336D03*
Y40486D03*
Y43635D03*
Y46785D03*
Y49935D03*
Y53084D03*
Y56234D03*
Y59383D03*
Y62533D03*
X70250Y27887D03*
Y31037D03*
Y34187D03*
Y37336D03*
Y40486D03*
Y43635D03*
Y46785D03*
Y49935D03*
Y53084D03*
Y56234D03*
Y59383D03*
Y62533D03*
X73399Y27887D03*
Y31037D03*
Y34187D03*
Y37336D03*
Y40486D03*
Y43635D03*
Y46785D03*
Y49935D03*
Y53084D03*
Y56234D03*
Y59383D03*
Y62533D03*
X76549Y27887D03*
Y31037D03*
Y34187D03*
Y37336D03*
Y40486D03*
Y43635D03*
Y46785D03*
Y49935D03*
Y53084D03*
Y56234D03*
Y59383D03*
Y62533D03*
X79698Y27887D03*
Y31037D03*
Y34187D03*
Y37336D03*
Y40486D03*
Y43635D03*
Y46785D03*
Y49935D03*
Y53084D03*
Y56234D03*
Y59383D03*
Y62533D03*
X82848Y27887D03*
Y31037D03*
Y34187D03*
Y37336D03*
Y40486D03*
Y43635D03*
Y46785D03*
Y49935D03*
Y53084D03*
Y56234D03*
Y59383D03*
Y62533D03*
X85998Y27887D03*
Y31037D03*
Y34187D03*
Y37336D03*
Y40486D03*
Y43635D03*
Y46785D03*
Y49935D03*
Y53084D03*
Y56234D03*
Y59383D03*
Y62533D03*
X89147Y27887D03*
Y31037D03*
Y34187D03*
Y37336D03*
Y40486D03*
Y43635D03*
Y46785D03*
Y49935D03*
Y53084D03*
Y56234D03*
Y59383D03*
Y62533D03*
X92297Y27887D03*
Y31037D03*
Y34187D03*
Y37336D03*
Y40486D03*
Y43635D03*
Y46785D03*
Y49935D03*
Y53084D03*
Y56234D03*
Y59383D03*
Y62533D03*
D02*
D86*
X120402Y51711D03*
X129502D03*
X138602D03*
D02*
D87*
X129502Y76112D03*
D02*
D88*
X39344Y25328D03*
X46037D03*
X67297Y20013D03*
X73990D03*
X87572Y71391D03*
X94265D03*
X102730Y25328D03*
X103124Y31037D03*
X109423Y25328D03*
X109817Y31037D03*
D02*
D89*
X39935Y62730D03*
Y69423D03*
X48006Y62730D03*
Y69423D03*
X111194Y59777D03*
Y66470D03*
D02*
D90*
X165919Y35072D03*
Y44915D03*
Y52789D03*
Y62631D03*
D02*
D91*
X40106Y42077D03*
Y54705D03*
X47383Y42077D03*
Y54705D03*
D02*
D92*
X119856Y32809D03*
Y42257D03*
X137179Y32809D03*
Y42257D03*
D02*
D93*
X30683Y74992D03*
X166023Y26960D03*
D02*
D94*
X147809Y39108D03*
Y48163D03*
X151549Y39108D03*
Y48163D03*
X155289Y39108D03*
Y48163D03*
X0Y0D02*
M02*
