  0
SECTION
  2
HEADER
  9
$EXTMIN
 10
209.6712
 20
226.7058
  9
$EXTMAX
 10
271.8781
 20
249.3918
  9
$LIMMIN
 10
209.6712
 20
226.7058
  9
$LIMMAX
 10
271.8781
 20
249.3918
  0
ENDSEC
  0
SECTION
  2
TABLES
  0
TABLE
  2
LAYER
 70
    18
  0
LAYER
  2
0
 70
    64
 62
     7
  6
CONTINUOUS
  0
LAYER
  2
_BOARD
 70
    64
 62
    254
  6
CONTINUOUS
  0
LAYER
  2
_DRILL
 70
    64
 62
    251
  6
CONTINUOUS
  0
ENDTAB
  0
ENDSEC
  0
SECTION
  2
BLOCKS
  0
BLOCK
  8
0
  2
_HOLE
 70
    64
 10
0.0000
 20
0.0000
  0
CIRCLE
  8
0
 10
0.0000
 20
0.0000
 40
0.500
  0
ENDBLK
  8
0
  0
ENDSEC
  0
SECTION
  2
ENTITIES
  0
POLYLINE
  8
_BOARD
 66
     1
 62
     3
 10
0.0000
 20
0.0000
 70
     1
 40
0.0000
 41
0.0000
  0
VERTEX
  8
_BOARD
 10
35.4835
 20
-0.0145
 40
0.0000
 41
0.0000
  0
VERTEX
  8
_BOARD
 10
3.0088
 20
-0.0145
  0
VERTEX
  8
_BOARD
 10
3.0088
 20
-0.0145
 40
0.0000
 41
0.0000
  0
VERTEX
  8
_BOARD
 10
3.0088
 20
0.9855
  0
VERTEX
  8
_BOARD
 10
3.0088
 20
0.9855
 40
0.0000
 41
0.0000
  0
VERTEX
  8
_BOARD
 10
0.0088
 20
0.9855
  0
VERTEX
  8
_BOARD
 10
0.0088
 20
0.9855
 40
0.0000
 41
0.0000
  0
VERTEX
  8
_BOARD
 10
0.0088
 20
16.5355
  0
VERTEX
  8
_BOARD
 10
0.0088
 20
16.5355
 40
0.0000
 41
0.0000
  0
VERTEX
  8
_BOARD
 10
3.0088
 20
16.5355
  0
VERTEX
  8
_BOARD
 10
3.0088
 20
16.5355
 40
0.0000
 41
0.0000
  0
VERTEX
  8
_BOARD
 10
3.0088
 20
17.5355
  0
VERTEX
  8
_BOARD
 10
3.0088
 20
17.5355
 40
0.0000
 41
0.0000
  0
VERTEX
  8
_BOARD
 10
35.4835
 20
17.5355
  0
VERTEX
  8
_BOARD
 10
35.4835
 20
17.5355
 40
0.0000
 41
0.0000
  0
VERTEX
  8
_BOARD
 10
35.4835
 20
16.5355
  0
VERTEX
  8
_BOARD
 10
35.4835
 20
16.5355
 40
0.0000
 41
0.0000
  0
VERTEX
  8
_BOARD
 10
39.9935
 20
16.5355
  0
VERTEX
  8
_BOARD
 10
39.9935
 20
16.5355
 40
0.0000
 41
0.0000
  0
VERTEX
  8
_BOARD
 10
39.9935
 20
0.9855
  0
VERTEX
  8
_BOARD
 10
39.9935
 20
0.9855
 40
0.0000
 41
0.0000
  0
VERTEX
  8
_BOARD
 10
35.4835
 20
0.9855
  0
VERTEX
  8
_BOARD
 10
35.4835
 20
0.9855
 40
0.0000
 41
0.0000
  0
VERTEX
  8
_BOARD
 10
35.4835
 20
-0.0145
 40
0.0000
 41
0.0000
  0
VERTEX
  8
_BOARD
 10
35.4835
 20
-0.0145
  0
SEQEND
  8
_BOARD
  0
INSERT
  8
_DRILL
  2
_HOLE
 10
34.6345
 20
16.2597
 41
0.9000
 42
0.9000
  0
INSERT
  8
_DRILL
  2
_HOLE
 10
34.6345
 20
1.2597
 41
0.9000
 42
0.9000
  0
INSERT
  8
_DRILL
  2
_HOLE
 10
0.9845
 20
7.7597
 41
0.9000
 42
0.9000
  0
ENDSEC
  0
EOF
