%FSLAX25Y25*%
%MOIN*%
G04 EasyPC Gerber Version 18.0.8 Build 3632 *
%ADD123C,0.03650*%
%ADD120C,0.04750*%
%ADD119C,0.04921*%
%ADD118C,0.05550*%
%ADD122C,0.06890*%
%ADD121C,0.07087*%
%ADD114C,0.09068*%
%AMT117*0 Thermal pad*7,0,0,0.04750,0.01600,0.01000,0*%
%ADD117T117*%
%AMT115*0 Thermal pad*7,0,0,0.04921,0.01772,0.01000,0*%
%ADD115T115*%
%AMT116*0 Thermal pad*7,0,0,0.05550,0.02400,0.01000,0*%
%ADD116T116*%
%AMT124*0 Thermal pad*7,0,0,0.16205,0.13055,0.01000,0*%
%ADD124T124*%
X0Y0D02*
D02*
D114*
X175761Y39946D03*
Y57757D03*
D02*
D115*
X62376Y57809D03*
X62572Y54856D03*
X71824Y48360D03*
X74974Y42061D03*
Y48360D03*
X78124Y42061D03*
X84423Y32612D03*
Y54659D03*
X90722Y29462D03*
X100958Y37730D03*
D02*
D116*
X35407Y39502D03*
X36574Y73574D03*
X36588Y35171D03*
X36653Y76488D03*
X39576Y20730D03*
X54895Y21409D03*
X56273Y68045D03*
X70078Y69423D03*
X72834D03*
X84620Y78281D03*
X105708Y77887D03*
X106470Y67061D03*
X108267Y77887D03*
X109448Y17708D03*
Y20661D03*
X111194Y44423D03*
X114541Y17061D03*
X115722Y49935D03*
X116706Y52100D03*
X116903Y47572D03*
X123596Y52100D03*
X127362Y17905D03*
Y20661D03*
X149212Y72433D03*
Y75189D03*
X150787Y27944D03*
X164935Y39502D03*
X165131Y32317D03*
X169069Y75033D03*
X170446Y36155D03*
D02*
D117*
X55486Y32612D03*
X84842Y16273D03*
D02*
D118*
X34226Y25328D03*
X49777Y35368D03*
X51574Y73023D03*
Y75582D03*
X53124Y78084D03*
X62598Y69423D03*
X65748D03*
X83635Y71194D03*
X89960Y76370D03*
Y79126D03*
X92381Y18506D03*
X97218Y72376D03*
X105880Y60958D03*
X126155Y47572D03*
Y49935D03*
X132848Y48557D03*
X133045Y51116D03*
X136151Y23112D03*
X138848Y23210D03*
X138950Y70604D03*
X156968Y19254D03*
D02*
D119*
X62376Y38911D03*
Y42061D03*
Y48360D03*
X68675Y35761D03*
Y42061D03*
Y48360D03*
Y57809D03*
X78124Y48360D03*
Y57809D03*
X81273Y42061D03*
X87572D03*
X90722Y38911D03*
Y51509D03*
X93872Y26313D03*
X98202Y27887D03*
X108045Y52494D03*
X114344Y27494D03*
D02*
D120*
X71824Y45210D03*
Y51509D03*
X78517Y16470D03*
X81273Y45210D03*
X95446Y50131D03*
X97218Y55250D03*
X107257Y56037D03*
X115328Y23557D03*
X139147Y58006D03*
X140328Y60171D03*
D02*
D121*
X30844Y44912D03*
D02*
D122*
X163324Y19321D03*
Y78376D03*
D02*
D123*
X166667Y14305D02*
X38814D01*
Y18242*
X27003*
Y79462*
X38814*
Y83399*
X166667*
Y79462*
X184423*
Y18242*
X166667*
Y14305*
D02*
D124*
X175761Y26805D03*
Y70899D03*
X0Y0D02*
M02*
